<?xml version="1.0" encoding="utf-8"?>
<!-- Generator: Adobe Illustrator 18.1.1, SVG Export Plug-In . SVG Version: 6.00 Build 0)  -->
<!DOCTYPE svg PUBLIC "-//W3C//DTD SVG 1.1//EN" "http://www.w3.org/Graphics/SVG/1.1/DTD/svg11.dtd">
<svg version="1.1" id="Слой_1" xmlns="http://www.w3.org/2000/svg" xmlns:xlink="http://www.w3.org/1999/xlink" x="0px" y="0px"
	 width="561px" height="273.8px" viewBox="0 0 561 273.8" enable-background="new 0 0 561 273.8" xml:space="preserve">
<g id="amp">
	<path d="M561,137.8c-7.3,0-14.7,0-22,0c-1.4,0-2.2,0.1-2,1.8c0.1,0.8,0.1,1.7,0,2.5c0,0.2-0.3,0.4-0.5,0.7
		c-0.1-0.1-0.3-0.2-0.3-0.4c-0.1-0.1-0.1-0.3-0.1-0.5c-0.1-1.3,0.3-3.3-0.4-3.7c-1.1-0.7-2.8-0.3-4.3-0.4c-0.5,0-3.3,3-3.3,3.5
		c0,2.5,0,5,0,7.5c0,0.3-0.2,0.6-0.4,0.8c-0.2-0.3-0.6-0.7-0.6-1c0-3.3,0-6.7,0-10c0-0.3-0.3-0.5-0.4-0.8c-0.2,0.2-0.5,0.4-0.5,0.7
		c-0.1,1.2,0,2.3,0,3.5c0,0.3-0.3,0.5-0.5,0.8c-0.2-0.3-0.5-0.5-0.5-0.8c-0.1-1,0-2,0-3c0-0.4-0.4-0.8-0.5-1.1
		c-0.1,0.4-0.4,0.9-0.4,1.3c-0.1,0.7,0.1,1.3,0,2c-0.2,1.2,0.6,2.5-0.6,3.5c-0.1-1.1-0.2-2.2-0.4-3.3c-0.1-0.5-0.2-0.9-0.3-1.4
		c-0.3-0.7-0.7-1.4-1-2.1c-0.2,0.7-0.5,1.4-0.6,2c-0.1,1.8,0,3.6-0.2,5.4c-0.1,0.5-0.9,0.9-1.4,1.4c-0.2-0.4-0.4-0.9-0.5-1.3
		c-0.4-2.4-0.7-4.7-1-7.1c0-0.2-0.4-0.3-0.6-0.4c-0.1,0-0.3,0.2-0.3,0.3c0,0.7,0,1.3,0,2c0,3,0,3-2.8,5.8c-1.4,1.4-1.6,4-4.2,4.3
		c-0.1,0,0,0.9-0.1,1.4c-0.1,0.3-0.4,0.6-0.6,0.9c-0.1-0.3-0.3-0.6-0.3-0.9c0-1.7,0-3.3,0-5c0-1.3,0-2.7,0-4c0-0.3-0.2-0.6-0.3-0.9
		c-0.2,0.3-0.6,0.6-0.6,0.9c0.1,3.4-1.7,6.6-1.1,10.1c0,0.2-0.3,0.5-0.4,0.8c-0.2-0.2-0.5-0.5-0.5-0.7c0-2.2,0-4.3,0-6.5
		c0-0.2-0.3-0.5-0.5-0.7c-0.2,0.3-0.4,0.5-0.4,0.8c0,3.7,0,7.3,0,11c0,1.2,0,2.3,0,3.5c0,0.2-0.4,0.4-0.6,0.5c0,0-0.3-0.2-0.3-0.3
		c-0.1-0.7-0.1-1.3-0.1-2c0-6.2,0-12.3,0-18.5c0-0.3-0.4-0.6-0.6-0.9c-0.1,0.3-0.4,0.6-0.3,0.9c0.8,7.1-1.4,14-1,21.1
		c0,0.8,0.1,1.7,0,2.5c0,0.5-0.3,0.9-0.4,1.3c-0.2-0.5-0.5-1.1-0.6-1.6c-0.1-2.2-0.1-4.3,0-6.5c0.2-4.1-1.7-8-1-12.1
		c0-0.2-0.3-0.5-0.5-0.7c-0.2,0.3-0.4,0.5-0.4,0.8c-0.1,2.1,0.4,4.2-1,6.1c-0.6,0.8,0.7,2.2-0.7,2.9c-0.1-1-0.3-1.9-0.3-2.9
		c-0.1-1.3,0-2.7,0-4c-0.1-1.6-0.2-3.2-0.4-4.8c-1.4,1.5-0.3,3.3-0.6,5c-0.1,0.3,0,0.7,0,1c-0.1,0.6-0.3,1.2-0.4,1.8
		c-0.2-0.5-0.4-1.1-0.6-1.6c-0.1-0.5,0-1,0-1.5c0-0.3-0.3-0.5-0.5-0.8c-0.2,0.3-0.5,0.5-0.5,0.8c-0.1,1.2,0,2.3,0,3.5
		c0,5.5,0,11,0,16.5c0,0.4-0.3,0.8-0.5,1.2c-0.2-0.4-0.4-0.9-0.4-1.3c-0.1-0.5,0-1,0-1.5c-0.2-1-0.4-2-0.6-3
		c-0.1,0.9-0.2,1.9-0.4,2.8c-0.1,0.3-0.4,0.6-0.6,0.9c-0.1-0.3-0.3-0.6-0.3-0.9c0-6.7,0-13.3,0-20c0-0.8,0-1.7,0-2.5
		c0-0.1-0.3-0.4-0.3-0.3c-0.2,0.1-0.6,0.3-0.6,0.5c-0.1,0.7,0,1.3,0,2c0,3.8,0,7.7,0,11.5c0,0.6-0.3,1.2-0.4,1.8
		c-0.2-0.5-0.5-1.1-0.5-1.6c-0.1-2.7-0.3-5.4,0-8c0.3-2.4-0.9-4.4-1.1-6.6c0-0.2-0.3-0.4-0.5-0.7c-0.1,0.3-0.4,0.5-0.4,0.8
		c0,4,0,8,0,12c0,0.3-0.4,0.7-0.6,1c-0.1-0.3-0.3-0.6-0.4-0.8c-0.4-3.7-0.7-7.4-1-11.1c0-0.3-0.2-0.6-0.4-0.8
		c-0.2,0.3-0.6,0.7-0.6,1c0,4.8,0,9.7,0,14.5c0,0.4-0.3,0.9-0.4,1.3c-0.2-0.4-0.3-0.8-0.6-1.1c-0.9-1-1.1-2.3-1-3.6
		c0.1-1.8,0-3.7,0-5.5c0-1.8,0.3-3.6-1.6-4.9c-0.4-0.3-0.3-1.5-0.4-2.3c0-0.1-0.2-0.4-0.3-0.3c-0.2,0.1-0.7,0.3-0.6,0.4
		c0.9,2.5-2.8,3.3-2.1,5.7c0.1,0.2-0.3,0.5-0.5,0.8c-0.2-0.3-0.4-0.5-0.5-0.8c-0.1-0.5,0.1-1,0-1.5c-0.1-0.6-0.4-1.1-0.6-1.6
		c-0.1,0.6-0.4,1.2-0.4,1.8c0,3.8,0,7.7,0,11.5c0,1.2,0,2.3,0,3.5c0,0.3-0.4,0.6-0.6,1c-0.1-0.3-0.3-0.6-0.4-0.9c-0.1-0.3,0-0.7,0-1
		c0-2.7,0.1-5.3,0-8c-0.2-2.4-0.5-4.7-1-7.1c-0.4-1.9-1,0.1-1.4,0c-0.3-0.1-0.4-0.7-0.6-1.1c-0.2-0.6-0.4-1.2-0.5-1.7
		c-0.2,0.6-0.5,1.2-0.5,1.8c0,5.3,0,10.7,0,16c0,0.4-0.4,0.7-0.6,1.1c-0.1-0.3-0.4-0.5-0.4-0.8c-0.1-0.8,0-1.7,0-2.5
		c-0.3-3.9-0.6-7.7-1-11.6c-0.1-0.9-0.6-1.7-1-2.6c-0.2-0.4-0.3-0.9-0.4-1.3c-0.2,0.5-0.5,1-0.6,1.6c-0.1,1.8,0,3.7-0.1,5.5
		c0,0.3-0.6,0.8-0.9,0.8c-0.3,0-1-0.5-1-0.7c0.4-2.2-0.6-4.1-1.1-6.1c-0.1-0.7-0.4-1.4-0.6-2.1c-0.1,0.8-0.4,1.6-0.4,2.3
		c0,5.8,0,11.7,0,17.5c0,0.3-0.4,0.6-0.6,0.9c-0.1-0.3-0.3-0.6-0.3-0.9c0-1.3-0.1-2.7,0-4c0.7-5.8-1.1-11.4-1-17.1
		c0-0.3-0.3-0.6-0.4-0.8c-0.2,0.4-0.5,0.7-0.6,1.1c-0.1,1.5,0,3,0,4.5c0,4,0,8,0,12c0,0.4-0.3,0.9-0.5,1.3c-0.2-0.4-0.5-0.8-0.5-1.2
		c0-3.3,0-6.7,0-10c0-0.6-0.3-1.1-0.5-1.7c-0.5,0.6-1.3,1.2-1.4,1.9c-0.2,1.6,0,3.3-0.1,5c0,0.3-0.4,0.6-0.6,0.9
		c-0.1-0.3-0.3-0.6-0.3-0.9c0-0.8,0-1.7,0-2.5c0.1-1.6-0.4-1.7-1.4-0.6c-0.2-1-0.4-2.1-0.6-3.1c-0.1-0.3-0.3-0.5-0.5-0.8
		c-0.2,0.3-0.5,0.5-0.5,0.8c0,3.3,0,6.7,0,10c0,0.4-0.3,0.8-0.5,1.2c-0.2-0.4-0.4-0.9-0.4-1.3c0-4.3,0-8.7,0-13c0-0.5-0.4-1-0.6-1.5
		c-0.1,0.4-0.4,0.9-0.4,1.3c0,3.5,0,7,0,10.5c0,0.3-0.4,0.6-0.6,0.9c-0.1-0.3-0.3-0.6-0.3-0.9c0-2.3,0-4.7,0-7
		c0-0.3-0.2-0.6-0.4-0.8c-0.2,0.3-0.5,0.6-0.6,1c-0.1,0.5,0,1,0,1.5c-0.1,0.5-0.3,0.9-0.4,1.3c-0.2-0.4-0.5-0.7-0.5-1.1
		c-0.1-0.7,0-1.3,0-2c0-0.3-0.3-0.5-0.5-0.8c-0.2,0.3-0.5,0.5-0.5,0.8c0,2.7,0,5.3,0,8c0,0.4-0.3,0.8-0.5,1.2
		c-0.1-0.4-0.4-0.9-0.4-1.3c-0.1-0.5,0-1,0-1.5c-0.2-1-0.4-2-0.6-3c-0.1,0.9-0.2,1.9-0.4,2.8c-0.1,0.3-0.4,0.6-0.6,0.9
		c-0.1-0.3-0.3-0.6-0.3-0.9c-0.2-0.9-0.3-1.9-0.4-2.8c-1,0.6-1.3,1.5-1.8,2.5c-0.9,1.9-0.9,3.7-0.9,5.6c0,4.3,0,8.7,0,13
		c0,0.6-0.3,1.1-0.5,1.6c-0.1-0.6-0.4-1.2-0.4-1.8c0-4.2,0.1-8.3-0.1-12.5c-0.2-3.9-0.6-7.7-1-11.6c-0.1-0.6,0.7-1.6-0.7-1.9
		c-0.2,1.3-2.5,0.1-2.3,2c0.1,0.5,0,1,0,1.5c0,1.3,0,2.7,0,4c0,0.4-0.3,0.9-0.4,1.3c-0.2-0.4-0.5-0.8-0.5-1.2c0-2.8,0-5.7,0-8.5
		c0-0.4-0.3-0.8-0.5-1.3c-0.2,0.4-0.4,0.9-0.5,1.3c-0.1,1.3,0,2.7,0,4c0,0.2-0.4,0.4-0.5,0.6c-0.1-0.3-0.3-0.5-0.4-0.8
		c-0.1-0.3,0.1-0.7,0-1c-0.1-0.4-0.4-0.7-0.6-1c-0.1,0.3-0.4,0.6-0.4,0.8c0,4.5,0,9,0,13.5c0,0.7,0,1.3,0,2c0,0.1-0.2,0.4-0.3,0.3
		c-0.2-0.1-0.6-0.3-0.6-0.4c0.1-2.3-1.5-4.2-1.1-6.6c0.6-3.1-0.1-6.1-0.9-9.1c-0.1-0.3-0.3-0.5-0.5-0.8c-0.2,0.3-0.5,0.5-0.5,0.8
		c0,1.3,0,2.7,0,4c-0.1,0.8-0.3,1.5-0.6,2.2c-0.2,0.3-0.7,0.5-1,0.8c-0.1-0.3-0.3-0.6-0.3-0.9c0-1.7,0-3.3,0-5
		c0-0.6-0.2-1.2-0.3-1.9c-0.2,0.6-0.4,1.3-0.7,1.9c-0.2,0.4-0.5,0.7-0.9,0.9c-1.7,0.9-2.2,2.5-2.1,4.3c0,2.5,0,5,0,7.5
		c0,0.4-0.3,0.8-0.5,1.2c-0.2-0.4-0.2-1-0.5-1.3c-0.8-0.9-1.2-1.9-1-3.1c0.7-4.6-1.1-9-1-13.6c0-0.3-0.2-0.6-0.3-0.9
		c-0.2,0.3-0.6,0.6-0.6,0.9c-0.1,1.8,0,3.7,0,5.5c0,0.4-0.3,0.9-0.4,1.3c-0.5-0.4-1.2-0.8-1.4-1.3c-0.3-1.1-0.2-2.3-0.2-3.4
		c0-1.2-0.6-1.2-1.6-1.3c-1,0-1.5,0.3-1.5,1.4c0,6.8,0,13.7,0,20.5c0,1.2,0,2.3,0,3.5c0,0.2-0.4,0.4-0.6,0.6c0,0-0.3-0.2-0.3-0.3
		c-0.1-0.7-0.1-1.3-0.1-2c0-5.8,0-11.7,0-17.5c0-0.3-0.4-0.6-0.6-0.9c-0.1,0.3-0.3,0.6-0.3,0.9c0,4,0,8,0,12c0,0.3-0.2,0.6-0.3,0.9
		c-0.2-0.3-0.6-0.6-0.6-1c-0.4-4.9-0.6-9.7-1.1-14.6c-0.1-1.5-0.6-3.1-1-4.6c-0.1-0.3-0.3-0.5-0.5-0.7c-0.2,0.3-0.4,0.5-0.4,0.8
		c0,3,0,6,0,9c0,0.4-0.4,0.7-0.6,1c-0.1-0.3-0.3-0.6-0.4-0.8c-1.4-3.3-0.9-6.7-1-10.1c0-0.3-0.2-0.6-0.4-0.8c-0.2,0.3-0.5,0.6-0.6,1
		c-0.4,1.7-0.8,3.4-1,5.1c-0.2,1.6,0,3.3-0.1,5c0,0.3-0.3,0.5-0.5,0.8c-0.2-0.3-0.5-0.5-0.5-0.8c0-2.8,0-5.7,0-8.5
		c0-0.9-0.2-1.9-0.6-2.7c-0.2-0.5-1-0.7-1.5-1c-0.3,0.5-0.8,1-0.8,1.5c-0.1,1.5,0,3,0,4.5c0,0.8,0.3,2.2-0.1,2.4
		c-1.6,0.9-0.7,3.5-1.3,3.3c-1.4-0.4-0.6-2.1-0.6-3.3c-0.1-2.3,0-4.7-0.1-7c0-0.4-0.3-0.9-0.4-1.3c-0.2,0.4-0.5,0.8-0.5,1.1
		c-0.1,2,0,4,0,6c0,0.3-0.3,0.5-0.5,0.8c-0.2-0.3-0.5-0.5-0.5-0.8c0-3,0-6,0-9c0-0.4-0.3-0.8-0.5-1.2c-0.1,0.4-0.4,0.9-0.4,1.3
		c-0.3,2.5,0.7,5.2-1,7.6c-0.5,0.8,0.7,2.2-0.7,2.8c-0.1-1-0.2-1.9-0.3-2.9c0-0.3-0.2-0.6-0.4-0.8c-0.2,0.3-0.6,0.7-0.6,1
		c0,4.8,0,9.7,0,14.5c0,0.7,0,1.3-0.1,2c0,0.1-0.2,0.3-0.3,0.3c-0.1,0-0.3-0.1-0.3-0.2c-0.1-0.3-0.2-0.6-0.2-0.9
		c-0.3-5.5-0.7-11.1-1-16.6c0-0.4-0.4-0.8-0.5-1.1c-0.1,0.4-0.3,0.9-0.4,1.3c0,0.2,0,0.3,0,0.5c-0.4,2.3,0.8,4.8-0.6,7
		c-0.1-2.3-0.3-4.6-0.4-6.8c0-0.7,0-1.3,0-2c-0.1-1-0.2-1.9-0.3-2.9c-1.4,0.7-0.5,1.9-0.6,2.9c-0.2,0.9,0.3,2.1-1.4,2
		c-0.2,0-0.6,1.3-0.6,2c-0.1,3.3,0,6.7,0,10c0,1.2,0,2.3,0,3.5c0,0.4-0.3,0.9-0.4,1.3c-0.2-0.4-0.5-0.8-0.5-1.2c0-5.2,0-10.3,0-15.5
		c0-1.2,0-2.3,0-3.5c0-0.3-0.3-0.5-0.5-0.8c-0.2,0.3-0.5,0.5-0.5,0.8c0,2.5,0,5,0,7.5c-0.1,1.5-0.4,3.1-0.5,4.6
		c-0.1-1.6-0.4-3.2-0.4-4.8c-0.1-2.7,0-5.3,0-8c0-0.3-0.4-0.6-0.6-1c-0.1,0.3-0.3,0.6-0.4,0.9c0,0.2,0,0.3,0,0.5
		c-0.1,1.1-0.2,2.2-0.3,3.4c-1.3-0.9-0.4-2.3-0.7-3.4c-0.1-0.4-0.3-0.9-0.4-1.3c-0.4,0.3-0.9,0.5-1,0.9c-0.6,1.4-1.7,2.6-1.6,4.4
		c0.1,2-0.1,1.9-2.6,5.8c-0.3,0.5-0.3,1.2-0.4,1.8c-0.1,1.2,0,2.3,0,3.5c0,0.1-0.3,0.4-0.3,0.3c-0.2-0.1-0.6-0.3-0.6-0.4
		c0-2.5-0.1-5,0-7.5c0.1-2.5-0.4-4.8-1-7.1c-0.1-0.3-0.3-0.5-0.5-0.8c-0.2,0.2-0.5,0.5-0.5,0.7c0,1.8,0,3.7,0,5.5
		c0,0.2-0.3,0.5-0.5,0.7c-0.2-0.3-0.4-0.5-0.5-0.8c-0.1-0.3,0-0.7,0-1c-0.2-1-0.4-2.1-0.6-3.1c-0.1,1.1-0.3,2.2-0.4,3.3
		c-0.3,2.5,0.7,5.1-0.6,7.4c-0.1-2.5-0.2-4.9-0.4-7.4c-0.1-1.1-0.2-2.2-0.3-3.4c-1.3,1-0.6,2.3-0.6,3.4c-0.1,5.2,0,10.3-0.1,15.5
		c0,0.6-0.3,1.2-0.4,1.8c-0.2-0.7-0.5-1.4-0.6-2.1c-0.1-3,0.1-6-0.1-9c-0.2-4-1.5-8-1-12.1c0-0.2-0.3-0.5-0.5-0.7
		c-0.2,0.3-0.4,0.5-0.4,0.8c0,1.2-0.2,2.4,0,3.5c0.2,1.4-0.4,2.5-1,3.6c-0.2,0.3-0.4,0.6-0.7,0.9c-0.1-0.3-0.3-0.6-0.3-0.9
		c-0.1-2.6-0.3-5.2-0.4-7.8c-1.4,2.7-0.3,5.6-0.6,8.5c-0.1,1.5,0,3,0,4.5c0,0.9-0.3,1.9-0.4,2.8c-0.2-1-0.5-2.1-0.6-3.1
		c-0.1-3.8,0-7.7,0-11.5c0-0.4-0.3-0.9-0.5-1.3c-0.5,0.5-1.2,0.8-1.4,1.4c-0.3,0.7,0,1.6-0.2,2.4c-0.2,1.2,1.1,3.2-1.6,3.3
		c-0.2,0-0.3,1.1-0.4,1.8c-0.1,0.8,0,1.7,0,2.5c-0.6-0.1-1.2-0.1-1.7-0.2c-0.3,3.1-3.1,5.6-2.3,9.1c0.1,0.5-0.3,1.1-0.5,1.7
		c-0.1-0.6-0.4-1.2-0.4-1.8c0-5,0-10,0-15c0-0.3-0.4-0.7-0.6-1c-0.1,0.3-0.3,0.5-0.4,0.8c-0.4,2.9-2.9,5.4-2.1,8.6
		c0,0.1-0.2,0.2-0.3,0.3c-0.2-0.2-0.5-0.4-0.5-0.7c0-2.7,0-5.3,0-8c0-0.4-0.3-0.9-0.5-1.3c-0.2,0.4-0.4,0.9-0.5,1.3
		c-0.9,7.8-1.3,15.7-1,23.6c0,0.3-0.4,0.7-0.6,1c-0.1-0.3-0.4-0.6-0.4-0.8c0.5-6.7-1.7-13.3-1-20.1c0.1-1.2,0.1-2.3,0-3.5
		c0-0.8-0.2-1.6-0.4-2.3c-0.2,0.8-0.5,1.7-0.6,2.5c-0.1,1.3,0,2.7,0,4c0,0.4-0.3,0.9-0.4,1.3c-0.2-0.4-0.5-0.8-0.5-1.2
		c-0.1-1.3,0-2.7,0-4c0-0.3-0.3-0.5-0.5-0.8c-0.2,0.3-0.4,0.5-0.5,0.8c-0.1,0.8,0,1.7,0,2.5c0,3.3,0,6.7,0,10c0,0.5-0.4,1.1-0.5,1.6
		c-0.1-0.6-0.3-1.2-0.4-1.8c-0.1-0.7,0-1.3,0-2c0-1,0.1-2,0-3c-0.3-1.7,0.8-3.5-0.6-5c-0.1,1.6-0.2,3.2-0.4,4.8c0,0.4-0.5,0.7-0.7,1
		c-0.4-0.4-0.9-0.7-1.2-1.1c-0.2-0.2-0.3-0.5-0.4-0.8c-0.2,0.2-0.6,0.4-0.6,0.5c0,2.2,0,4.3,0,6.5c0,0.3-0.3,0.5-0.4,0.8
		c-0.2-0.2-0.5-0.5-0.5-0.7c0-1.8,0-3.7,0-5.5c0-0.8-0.1-1.6-0.2-2.4c-0.5,0.2-0.9,0.4-1.4,0.6c-0.1-0.4-0.4-0.9-0.4-1.3
		c-0.3-2.5,0.7-5.1-0.6-7.5c-0.1,2.6-0.3,5.2-0.4,7.8c-0.1,1.5,0,3,0,4.5c0,0.8-0.2,1.6-0.3,2.4c-0.6-0.8-1.4-1.6-1.6-2.5
		c-0.3-1.6,0-3.3-0.1-5c0-0.4-0.3-0.9-0.4-1.3c-0.2,0.4-0.5,0.8-0.5,1.2c0,4.8,0,9.7,0,14.5c0,1.2,0,2.3,0,3.5
		c0,0.3-0.3,0.5-0.5,0.7c-0.2-0.3-0.4-0.5-0.5-0.8c-0.4-2.2-1.3-4.2-1.1-6.6c0.2-2.3,0.1-4.7,0-7c-0.1-1.1,0.7-2.5-0.6-3.4
		c-0.1,1.1-0.2,2.2-0.4,3.4c-0.1,0.5-0.1,1.1-0.4,1.3c-2,2-1.6,4.4-1.6,6.8c0,0.4-0.3,0.9-0.5,1.3c-0.2-0.4-0.5-0.8-0.5-1.2
		c-0.1-1.2,0-2.3,0-3.5c0-4.2,0-8.3,0-12.5c0-0.6-0.3-1.1-0.5-1.7c-0.2,0.6-0.3,1.2-0.5,1.8c-0.1,0.4-0.4,0.7-0.6,1.1
		c-0.1-0.3-0.4-0.5-0.4-0.8c-0.1-0.8,0-1.7,0-2.5c0-0.3,0.1-0.7,0-1c-0.1-0.2-0.4-0.3-0.6-0.4c-0.1,0-0.3,0.2-0.3,0.3
		c0,0.3,0,0.7,0,1c-0.3,6-0.7,12.1-1,18.1c0,0.4-0.3,0.9-0.4,1.3c-0.2-0.5-0.5-1.1-0.6-1.6c-0.1-3.5,0-7,0-10.5c0-1,0-2,0-3
		c0-0.3-0.3-0.5-0.5-0.8c-0.2,0.2-0.5,0.5-0.5,0.7c0,3.7,0,7.3,0,11c0,0.4-0.3,0.8-0.5,1.2c-0.2-0.4-0.4-0.9-0.4-1.3
		c0-2.5,0-5,0-7.5c0-0.8,0.2-1.7-0.1-2.5c-0.3-0.9-1.1-1.7-1.6-2.5c-0.1,0.8-0.3,1.6-0.3,2.4c-0.1,0.7,0,1.3,0,2
		c0,0.1-0.3,0.4-0.3,0.3c-0.2-0.1-0.6-0.3-0.6-0.5c0-1.5,0.1-3-0.1-4.5c-0.1-0.7-0.4-1.5-0.8-2.2c-0.1-0.3-0.5-0.5-0.7-0.7
		c-0.2,0.3-0.4,0.5-0.5,0.8c-0.4,1.7-0.7,3.4-1,5.1c-0.3,2,0.6,4.1-0.6,6c-0.1-1.9-0.2-3.9-0.4-5.8c-0.2-2,0.8-4.1-0.6-5.9
		c-0.1,2-0.3,3.9-0.3,5.9c0,5.3,0,10.7,0,16c0,0.3-0.2,0.6-0.4,0.8c-0.2-0.3-0.6-0.7-0.6-1c-0.1-2,0-4,0-6c0-0.6-0.3-1.2-0.4-1.8
		c-0.2,0.5-0.5,1.1-0.5,1.6c-0.1,2.2,0,4.3,0,6.5c0,0.3-0.3,0.5-0.5,0.8c-0.2-0.3-0.5-0.5-0.5-0.8c0-2.7,0-5.3,0-8
		c0-0.4-0.3-0.8-0.5-1.2c-0.1,0.4-0.4,0.9-0.4,1.3c-0.1,1,0,2,0,3c0,0.2-0.4,0.4-0.6,0.5c0,0-0.3-0.2-0.3-0.3c0-0.5,0-1,0-1.5
		c0-3.2,0-6.3,0-9.5c0-2.7,0.4-5.5-1.7-7.8c-0.4-0.4-0.2-1.2-0.3-1.9c-0.1-0.6-0.3-1.2-0.4-1.8c-0.2,0.5-0.4,1.1-0.7,1.6
		c-0.1,0.1-0.6,0.1-0.7,0c-0.3-0.5-0.5-1-0.7-1.6c-0.1,0.6-0.4,1.2-0.4,1.8c0,4.7,0,9.3,0,14c0,0.3-0.4,0.7-0.6,1
		c-0.1-0.3-0.4-0.6-0.4-0.8c0-4.3,0-8.7,0-13c0-0.3-0.2-0.6-0.3-0.9c-0.2,0.3-0.6,0.6-0.6,0.9c-0.4,2-0.7,4.1-1,6.1
		c-0.1,0.3-0.3,0.5-0.4,0.8c-0.2-0.2-0.5-0.4-0.5-0.7c0-1.5,0-3-0.1-4.5c0-0.3-0.6-0.7-1-0.7c-0.3,0-0.7,0.5-1,0.8
		c-0.1,0.1,0,0.3,0,0.5c-0.2,1.5-0.4,3.1-0.6,4.6c-1.2-1.3,0.5-3.4-1.4-4.4c-0.1,0,0-0.3,0-0.5c-0.4-1.2,0.9-2.8-0.7-3.8
		c-0.1,1.5-0.3,2.9-0.3,4.4c-0.1,2,0,4,0,6c0,0.4-0.2,0.9-0.4,1.3c-0.2-0.5-0.4-1-0.6-1.6c-1.1-2.8-1.1-5.7-1-8.6
		c0-0.3-0.6-0.7-1-0.7c-0.3,0-0.9,0.5-0.9,0.8c-0.1,0.8,0,1.7,0,2.5c0,3.2,0,6.3,0,9.5c0,0.7-0.4,1.4-0.6,2.1
		c-0.1-0.6-0.4-1.2-0.4-1.8c0-2.3,0-4.7,0-7c0-0.7,0.1-1.3,0-2c-0.1-0.4-0.4-0.8-0.6-1.2c-0.2-0.3-0.5-0.5-0.7-0.7
		c-0.2,0.3-0.6,0.6-0.6,0.9c0,2.8,0,5.7,0,8.5c0,0.4-0.3,0.9-0.4,1.3c-0.2-0.5-0.5-1-0.6-1.6c-0.1-1.5,0-3-0.1-4.5
		c0-0.3-0.6-0.7-0.9-0.8c-2-0.5-1.9-0.4-2.1-1.9c-0.1-1.4,0.6-2.9-0.6-4.1c-0.1,1.3-0.3,2.6-0.4,3.8c0,0.3,0.1,0.7,0,1
		c-0.2,0.7-0.4,1.3-0.6,1.9c-0.1-0.6-0.2-1.2-0.4-1.9c-0.1-0.3-0.2-0.6-0.3-0.9c-0.2,0.3-0.6,0.6-0.6,0.9c-0.1,1.2,0,2.3,0,3.5
		c0,3.2,0,6.3,0,9.5c0,0.5,0,1-0.1,1.5c0,0.1-0.2,0.2-0.3,0.4c-0.2-0.2-0.5-0.4-0.6-0.6c-0.1-0.7,0-1.3,0-2c0-3.7,0-7.3,0-11
		c0-1.1-0.3-2.2-0.5-3.3c-1.1,0.8-1.9,1.8-1.6,3.3c0,0.1-0.4,0.4-0.6,0.6c-0.1-0.3-0.4-0.5-0.4-0.8c-0.1-1.3-0.1-2.6-0.4-3.9
		c-0.1-0.7-0.7-1.4-1-2.1c-0.2,0.7-0.6,1.3-0.6,2c-0.1,2,0,4,0,6c0,0.7,0.5,1.8-0.9,1.9c-1.3,0.1-1.1-0.9-1.1-1.7c0-1.8,0-3.7,0-5.5
		c0-0.7,0.1-1.4,0-2c-0.1-0.3-0.6-0.8-0.9-0.8c-0.3,0-1,0.4-1,0.7c-0.1,2,0,4-0.1,6c0,0.4-0.3,0.8-0.5,1.2c-0.2-0.4-0.3-0.9-0.5-1.3
		c-0.1-0.2-0.4-0.4-0.6-0.5c-0.1,0.3-0.4,0.6-0.4,0.8c0,2.2,0,4.3,0,6.5c0,0.5-0.2,0.9-0.3,1.4c-0.2-0.4-0.4-0.9-0.7-1.3
		c-1.5-2-2-4.3-2-6.7c0-0.3-0.3-0.5-0.5-0.8c-0.2,0.3-0.5,0.5-0.5,0.8c0,3.2,0,6.3,0,9.5c0,1.3,0,2.7,0,4c0,0.2-0.3,0.4-0.5,0.7
		c-0.1-0.3-0.4-0.5-0.4-0.8c0-4.3,0-8.7,0-13c0-0.3-0.4-0.7-0.6-1c-0.1,0.3-0.4,0.6-0.4,0.8c0,3.7,0,7.3,0,11c0,0.3-0.4,0.6-0.6,0.9
		c-0.1-0.3-0.3-0.6-0.3-0.9c0-2.7,0-5.3,0-8c0-2.3-0.3-2.4-3.1-2.3c-0.3,0-0.8-0.3-0.8-0.4c-0.1-2.3,0-4.7-0.1-7
		c0-0.4-0.3-0.8-0.5-1.1c-0.1,0.4-0.4,0.9-0.4,1.3c-0.1,0.8,0.1,1.7,0,2.5c-0.2,1,0.7,2.2-0.6,3c-0.1-0.9-0.2-1.9-0.4-2.8
		c0-0.3-0.2-0.6-0.3-0.9c-0.2,0.3-0.6,0.6-0.6,0.9c-0.1,2.7,0,5.3,0,8c0,0.3-0.2,0.6-0.4,0.8c-0.2-0.3-0.5-0.7-0.6-1
		c-0.1-0.8,0-1.7,0-2.5c0-0.4-0.3-0.9-0.4-1.3c-0.2,0.4-0.5,0.8-0.5,1.2c0,3,0,6,0,9c0,1,0,2,0,3c0,0.3-0.3,0.5-0.5,0.8
		c-0.2-0.3-0.5-0.5-0.5-0.8c0-3.3,0-6.7,0-10c0-0.8,0.2-1.7,0-2.5c-0.6-1.6-1.4,0.5-1.5,0.1c-0.3-1.2-0.3-2.5-0.5-3.8
		c0-0.3-0.2-0.6-0.3-0.9c-0.2,0.3-0.6,0.6-0.6,0.9c0,4.5,0,9,0,13.5c0,0.7,0,1.3-0.1,2c0,0.1-0.3,0.4-0.3,0.3
		c-0.2-0.1-0.6-0.3-0.6-0.5c-0.1-1,0-2,0-3c0-2.8,0-5.7,0-8.5c0-0.3-0.3-0.5-0.4-0.8c-0.2,0.2-0.6,0.5-0.5,0.7
		c0.5,2.2-0.6,4.1-1,6.1c-0.1,0.4-0.4,0.7-0.6,1.1c-0.1-0.3-0.4-0.6-0.4-0.8c0.3-3.4-1.8-6.6-1.1-10.1c0.1-0.3-0.5-0.7-0.7-1
		c-0.4,0.4-0.8,0.7-1.2,1.1c-0.1,0.1,0,0.3,0,0.5c-0.1,0.4-0.3,0.9-0.4,1.3c-0.2-0.4-0.6-0.7-0.6-1.1c-0.1-1.7,0-3.3,0-5
		c0-0.3-0.3-0.5-0.4-0.8c-0.2,0.2-0.5,0.5-0.5,0.7c0,1.8,0,3.7,0,5.5c0,0.2-0.3,0.5-0.5,0.7c-0.2-0.3-0.4-0.5-0.5-0.8
		c-0.1-0.3,0.1-0.7,0-1c-0.1-0.4-0.4-0.7-0.6-1.1c-0.2,0.2-0.5,0.4-0.7,0.7c-0.3,0.5-0.6,1.1-0.7,1.7c-0.1,1,0,2,0,3
		c0,0.8-0.2,1.6-0.3,2.4c-1.3-0.5-0.3-1.6-0.6-2.4c-0.2-0.4-0.3-0.9-0.4-1.3c-0.2,0.4-0.5,0.7-0.6,1.1c-0.4,2-1.5,3.9-1,6.1
		c0,0.2-0.3,0.5-0.5,0.7c-0.2-0.3-0.4-0.5-0.4-0.8c0-1.2,0.1-2.3,0-3.5c-0.1-1.2-0.4-2.4-0.6-3.6c-0.4,1-0.8,2-1,3.1
		c-0.2,0.8-0.2,1.6-0.4,2.3c0,0.1-0.3,0.4-0.3,0.3c-0.2-0.1-0.6-0.3-0.6-0.4c-0.1-0.5,0-1,0-1.5c0-2.3,0-4.7,0-7
		c0-0.6-0.3-1.2-0.4-1.8c-0.2,0.5-0.4,1.1-0.6,1.6c0,0.2,0,0.3,0,0.5c-0.1,0.6-0.3,1.2-0.5,1.8c-0.2-0.6-0.3-1.2-0.5-1.8
		c-0.1-0.4-0.4-0.8-0.5-1.2c-0.2,0.3-0.4,0.5-0.4,0.8c-0.1,1,0.1,2-0.1,3c-0.3,1.7,0.8,3.5-0.6,5c-0.7-1.6-0.4-3.4-1.3-5
		c-0.6-1-0.3-2.5-0.5-3.8c-1.3,1.2-0.4,2.7-0.6,4c-0.1,0.8,0,1.7,0,2.5c-0.1,1.1-0.3,2.2-0.4,3.3c-0.5-1.2-1.1-2.5-1.5-3.7
		c-0.2-0.6,0-1.3,0-2c0-0.3,0-0.7-0.2-0.9c-0.9-0.8-3.3,0.6-2.8-2.2c0.3-1.5,0.1-3,0-4.5c0-0.2-0.4-0.4-0.6-0.5c0,0-0.2,0.2-0.3,0.3
		c-0.3,0.4-0.9,0.7-1,1.1c-0.4,1.7-0.7,3.4-1.1,5.1c-0.1,0.6-0.4,1.2-0.8,1.7c-0.2,0.2-0.7,0.3-1,0.4c0.4-1.8-1.9-1.3-2.2-2.5
		c-0.1-0.7-0.4-1.3-0.6-2c-0.1,0.6-0.3,1.2-0.4,1.8c-0.1,1.3,0.4,2.7-1,3.6c-0.4,0.2-0.5,0.8-0.8,1.2c-0.1-0.5-0.2-0.9-0.4-1.3
		c-0.1-0.1-0.6-0.1-0.7-0.1c-0.6,1.9-1,2.8-1.3-0.1c-0.1-1-0.6-2.1-1-3.1c-0.1-0.4-0.4-0.7-0.6-1c-0.1,0.4-0.2,0.9-0.4,1.3
		c-0.1,0.5-0.2,0.9-0.3,1.4c-0.2-0.5-0.5-0.9-0.6-1.4c-0.1-0.6,0-1.3-0.1-2c0-0.1-0.3-0.4-0.3-0.3c-0.2,0.2-0.6,0.3-0.6,0.5
		c0,4.1-1.7,8-1.1,12.1c0.1,0.4-0.6,0.8-1,1.3c-0.3-0.4-0.9-0.9-0.9-1.3c-0.1-3.3,0-6.7-0.1-10c0-0.9-0.4-1.7-0.6-2.6
		c-0.1,0.8-0.3,1.5-0.4,2.3c0,0.3,0.1,0.7,0,1c-0.1,0.2-0.4,0.3-0.6,0.4c-0.1,0-0.3-0.2-0.3-0.3c-0.1-0.1,0-0.3,0-0.5
		c-0.1-1-0.2-1.9-0.3-2.9c-1.3,0.7-0.6,2-0.6,2.9c0,2.5-1.9-1.5-2.1,0.7c-0.2,2.7-0.6,5.4-1,8.1c-0.1,0.4-0.4,0.7-0.6,1.1
		c-0.1-0.4-0.4-0.9-0.4-1.3c0-2.5,0-5,0-7.5c0-0.3-0.4-0.6-0.6-0.9c-0.1,0.3-0.3,0.6-0.3,0.9c0,0.2,0,0.3,0,0.5
		c-0.1,0.8-0.2,1.6-0.4,2.4c-1.3-0.5-0.4-1.6-0.6-2.5c-0.1-0.3,0-0.7-0.1-1c0-0.1-0.2-0.2-0.3-0.4c-0.2,0.2-0.4,0.4-0.6,0.6
		c-0.1,0.1,0,0.3,0,0.5c0.7,5.6-1.3,11-1,16.6c0,0.4-0.3,0.8-0.5,1.2c-0.2-0.4-0.4-0.9-0.4-1.3c-0.1-1.2,0.1-2.3,0-3.5
		c-0.3-3.2-0.6-6.4-1-9.6c-0.1-0.6-0.9-1-0.9-1.6c-0.2-1.9-0.3-3.9-0.4-5.8c-1.4,2-0.2,4.3-0.6,6.5c-0.3,1.5-0.8,3-1,4.6
		c-0.2,1.6,0,3.3-0.1,5c0,0.3-0.3,0.5-0.5,0.8c-0.2-0.3-0.5-0.5-0.5-0.8c0-1.7,0-3.3,0-5c0-0.4-0.3-0.8-0.5-1.2
		c-0.2,0.4-0.3,0.9-0.4,1.3c-0.3,1.5,0.7,3.2-0.6,4.5c-0.1-1.4-0.2-2.9-0.4-4.3c-0.2-1.5-0.8-3-0.9-4.6c-0.2-1.6,0.2-3.4-0.1-5
		c-0.2-1.1-0.7-2.8-2.4-1c-0.2-0.3-0.4-0.5-0.5-0.8c-0.1-0.3-0.1-0.6-0.2-0.9c-0.3,0.2-0.6,0.3-0.8,0.6c-0.2,0.2-0.2,0.6-0.3,0.9
		c-2.9,6.6-2.9,6.7-2.7,10.3c0,0.7,0,1.3,0,2c0,0.2,0,0.3,0,0.5c-0.1,0.1-0.3,0.4-0.3,0.3c-0.2-0.1-0.6-0.3-0.6-0.5
		c0-1.7-0.2-3.4,0-5c0.4-2.4-0.7-4.4-1.1-6.6c0-0.3-0.3-0.5-0.5-0.8c-0.2,0.3-0.5,0.5-0.5,0.8c0,1.7,0,3.3,0,5
		c0,0.4-0.4,0.8-0.5,1.1c-0.1-0.4-0.4-0.9-0.4-1.3c-0.1-0.7,0.2-1.7-0.1-1.9c-0.8-0.5-2.3,0.1-2.3-1.6c-0.2,0.3-0.6,0.7-0.6,1
		c0,2.7,0,5.3,0,8c0,0.3-0.3,0.5-0.4,0.8c-0.2-0.2-0.5-0.4-0.5-0.7c-0.4-1.7-0.7-3.4-1-5.1c-0.2-1-0.4-2.1-0.6-3.1
		c-0.2,0.9-0.4,1.8-0.7,2.7c-0.1,0.3-0.6,0.4-0.7,0.7c-0.2,0.8-0.3,1.6-0.4,2.3c-0.6-0.8-1.3-1.6-1.6-2.5c-0.3-0.9,0-2-0.1-3
		c0-0.4-0.3-0.9-0.4-1.3c-0.2,0.4-0.5,0.8-0.5,1.2c0,2.3,0,4.7,0,7c0,0.2-0.3,0.5-0.5,0.7c-0.2-0.3-0.5-0.5-0.5-0.8
		c0-1.9,0.1-3.8-1-5.6c-0.4-0.7,0.7-1.9-0.7-2.4c-0.1,0.8-0.3,1.6-0.3,2.4c-0.1,2.8-0.2,5.6-0.4,8.4c-1.5-2.7-0.3-5.6-0.6-8.4
		c-0.1-0.7,0-1.3-0.1-2c0-0.1-0.3-0.4-0.3-0.3c-0.2,0.2-0.6,0.4-0.6,0.6c-0.1,1.2,0,2.3,0,3.5c0,0.3-0.3,0.5-0.4,0.8
		c-0.2-0.2-0.5-0.5-0.5-0.7c-0.1-1.2,0-2.3-0.1-3.5c0-0.3-0.7-0.7-1-0.7c-0.3,0-0.9,0.5-0.9,0.8c0.1,5.4-1.7,10.7-1.1,16.1
		c0,0.3-0.4,0.6-0.6,0.9c-0.1-0.3-0.3-0.6-0.3-0.9c-0.1-2.9,0.4-5.8-1-8.6c-0.2-0.4-0.3-0.9-0.4-1.3c-0.2,0.5-0.4,1.1-0.6,1.6
		c-0.2,0.4-0.3,0.9-0.5,1.3c-0.2-0.4-0.5-0.8-0.5-1.2c-0.1-1.2,0-2.3,0-3.5c0-0.7-0.1-1.3,0-2c0.3-1.9-2-0.8-2.3-2
		c-0.3,0.2-0.7,0.4-0.7,0.7c-0.1,1.7-0.2,3.4,0,5c0.3,2-0.7,2.3-2.3,2.1c-1.7-0.3-1.8,0.7-1.8,2c0,2.3-0.2,4.6-0.3,6.8
		c-1.5-2.2-0.4-4.7-0.6-7c-0.2-3,0-6-0.1-9c0-0.6-0.3-1.2-0.4-1.8c-0.2,0.5-0.4,1.1-0.6,1.6c-0.3,0.9-0.5,1.8-0.9,2.6
		c-0.1,0.3-0.5,0.4-0.7,0.6c-0.2-0.3-0.4-0.5-0.4-0.8c-0.1-0.3,0-0.7,0-1c-0.4-2.3,0.8-4.8-0.6-7c-0.1,2.4-0.3,4.9-0.4,7.3
		c0,0.7,0.1,1.3,0,2c-0.3,2.5,0.8,5-0.7,7.4c-0.1-2.5-0.3-4.9-0.3-7.4c0-1.7-0.5-1.6-1.5-0.5c-0.5-0.7-1.4-1.4-1.5-2.2
		c-0.2-1.5,0-3-0.1-4.5c0-0.4-0.3-0.8-0.5-1.2c-0.1,0.4-0.4,0.9-0.4,1.3c0,3.7,0,7.3,0,11c0,0.5-0.4,1-0.6,1.5
		c-0.5-0.5-1-0.9-1.3-1.4c-0.2-0.4,0-1,0-1.5c0-1.5,0-3,0-4.5c0-0.8-0.2-1.6-0.4-2.3c-0.2,0.8-0.5,1.7-0.6,2.5
		c-0.1,0.8,0.3,1.9-0.1,2.5c-3.2,4.4-1.5,9.5-2,14.2c-0.1,0.6-0.4,1.1-0.5,1.6c-0.1-0.6-0.4-1.2-0.4-1.8c-0.4-3.5-0.8-7-1-10.6
		c-0.2-3.5,0-7-0.1-10.5c0-0.3-0.4-0.6-0.7-0.8c-0.4,0.5-0.7,1-1.1,1.6c-0.1-0.8-0.2-1.6-0.4-2.4c0-0.1-0.2-0.2-0.3-0.4
		c-0.2,0.2-0.5,0.4-0.5,0.7c0,1.5,0,3,0,4.5c0,3.3,0,6.7,0,10c0,0.3-0.3,0.5-0.5,0.8c-0.2-0.3-0.5-0.6-0.5-0.8
		c0.4-1.7-0.7-3.1-1-4.6c-0.2-1.2,0.6-2.5-0.6-3.5c-0.1,1.3-0.3,2.6-0.4,3.8c-0.1,3.3,0,6.7,0,10c0,0.3-0.2,0.6-0.3,0.9
		c-0.2-0.3-0.5-0.6-0.6-0.9c-0.1-0.3,0-0.7,0-1c-0.3-4.5-0.3-9.1-1.2-13.6c-0.4-1.9-0.8-3.7-0.9-5.6c0-0.3-0.3-0.5-0.5-0.7
		c-0.2,0.3-0.4,0.5-0.5,0.8c-0.1,0.3,0,0.7,0,1c0.1,5.7-1.7,11.3-1,17.1c0,0.3-0.4,0.6-0.6,1c-0.1-0.3-0.3-0.6-0.3-0.9
		c0-1.5,0-3,0-4.5c0-4.2,0-8.3,0-12.5c0-0.3-0.2-0.6-0.3-0.9c-0.2,0.3-0.6,0.6-0.6,0.9c0,3.3,0,6.7,0,10c0,0.5,0,1-0.1,1.5
		c0,0.1-0.3,0.4-0.3,0.3c-0.2-0.2-0.6-0.4-0.6-0.6c-0.1-1,0-2,0-3c0-1.8,0-3.7,0-5.5c0-0.3-0.3-0.5-0.4-0.8
		c-0.2,0.2-0.5,0.5-0.5,0.7c0,1.5,0.1,3,0,4.5c-0.3,3.7-0.6,7.4-1,11.1c0,0.2-0.4,0.4-0.6,0.6c-0.1-0.3-0.4-0.5-0.4-0.8
		c-0.4-5-0.7-10.1-1-15.1c0-0.4-0.4-0.8-0.8-1c-0.2-0.1-0.6,0-0.9,0.2c-1,0.7-1.4,1.7-1.3,3c0.1,3,0,6,0,9c0,0.3-0.3,0.5-0.5,0.8
		c-0.2-0.2-0.5-0.5-0.5-0.7c0-2.2,0.1-4.3-0.1-6.5c-0.1-1.4-0.6-2.7-1-4.1c0-0.1-0.8-0.3-0.9-0.2c-0.3,0.4-0.5,0.9-0.7,1.4
		c-0.1-0.5-0.2-0.9-0.4-1.3c-0.1-0.1-0.9,0-0.9,0.1c0,2.3,0,4.7-0.1,7c0,0.4-0.3,0.9-0.4,1.3c-0.2-0.4-0.5-0.7-0.6-1.1
		c-0.4-3-0.7-6.1-1-9.1c0-0.2-0.3-0.5-0.5-0.7c-0.2,0.2-0.6,0.4-0.7,0.7c-1.2,2.9-2.7,5.6-2.8,8.9c0,2,0,4,0,6
		c0,0.8-0.3,1.5-0.4,2.3c-0.2-0.7-0.5-1.4-0.5-2.1c-0.1-3.3,0-6.7,0-10c0-0.3-0.3-0.5-0.5-0.8c-0.2,0.3-0.4,0.5-0.5,0.8
		c-0.4,1-0.7,2.1-1,3.1c-0.2,0.7-0.4,1.3-0.6,2c-0.1-0.6-0.3-1.2-0.4-1.8c-0.1-1,0.1-2-0.1-3c-0.1-0.6,0.7-1.6-0.6-1.9
		c-0.1,0.6-0.2,1.2-0.3,1.9c-0.1,0.3-0.2,0.6-0.4,0.8c-0.2-0.5-0.4-1-0.6-1.5c-0.2-0.4-0.3-0.9-0.4-1.3c-0.2,0.4-0.5,0.8-0.5,1.2
		c-0.1,2.2,0,4.3,0,6.5c0,0.8,0,1.7,0,2.5c0,0.3-0.3,0.5-0.5,0.8c-0.2-0.3-0.5-0.5-0.5-0.8c0-3.5,0-7,0-10.5c0-0.6-0.3-1.1-0.5-1.6
		c-0.1,0.6-0.3,1.2-0.4,1.8c-0.3,2,0.7,4.1-0.6,6c-0.1-1.9-0.3-3.9-0.4-5.8c0-0.5,0-1,0-1.5c-0.1-1.5-0.2-2.9-0.3-4.4
		c-1.6,1.3-0.3,2.9-0.7,4.4c-0.4,1.5-0.8,3-1,4.6c-0.2,1.6,0,3.3-0.1,5c0,0.3-0.3,0.5-0.4,0.8c-0.2-0.4-0.5-0.8-0.5-1.2
		c-0.1-2,0-4,0-6c0-0.3-0.3-0.5-0.5-0.8c-0.2,0.3-0.3,0.5-0.5,0.8c-0.2,0.4-0.4,0.7-0.6,1.1c-0.1-0.3-0.3-0.5-0.4-0.8
		c-0.2-0.7-0.4-1.3-0.6-2c-0.1,0.6-0.2,1.2-0.4,1.8c-0.1,0.3-0.2,0.6-0.3,0.9c-0.2-0.1-0.6-0.2-0.6-0.4c-0.4-1.2-0.7-2.4-1-3.6
		c-0.1-0.3-0.3-0.5-0.4-0.8c-0.2,0.2-0.5,0.4-0.5,0.7c-0.4,1.7-0.7,3.4-1,5.1c-0.1,0.4-0.4,0.7-0.6,1.1c-0.1-0.4-0.4-0.9-0.4-1.3
		c0-1.6-0.1-3.1-1-4.6c-0.7-1.2-0.9-2.7-1-4c-0.2-1.5,0-3-0.1-4.5c0-0.4-0.3-0.9-0.4-1.3c-0.2,0.5-0.6,1-0.6,1.6c0,3.8,0,7.7,0,11.5
		c0,1.2,0,2.3,0,3.5c0,0.4-0.3,0.9-0.4,1.3c-0.2-0.4-0.5-0.8-0.5-1.2c0-3.2,0-6.3,0-9.5c0-0.8,0-1.7,0-2.5c0-0.3-0.3-0.5-0.5-0.7
		c-0.2,0.3-0.4,0.5-0.5,0.8c0,3,0,6,0,9c0,0.7-0.4,1.4-0.6,2.1c-0.1-0.6-0.3-1.2-0.4-1.8c-0.1-0.3,0.1-0.7,0-1
		c-0.1-0.3-0.4-0.6-0.6-0.9c-0.1,0.3-0.3,0.6-0.3,0.9c-0.5,3.2-1.4,6.3-1,9.6c0,0.3,0,0.7-0.1,1c0,0.1-0.2,0.2-0.3,0.4
		c-0.2-0.2-0.6-0.4-0.6-0.6c-0.1-1.3,0-2.7,0-4c0-3.5,0-7,0-10.5c0-0.3-0.3-0.5-0.5-0.8c-0.2,0.2-0.5,0.5-0.5,0.7c0,2.2,0,4.3,0,6.5
		c0,0.2-0.3,0.5-0.5,0.7c-0.2-0.3-0.4-0.5-0.4-0.8c-0.1-0.3,0-0.7,0-1c-0.2-1-0.4-2-0.6-3.1c-0.1,0.9-0.3,1.9-0.4,2.8
		c-0.1,0.7,0.1,1.3,0,2c-0.3,1.6,0.7,3.4-0.6,4.9c-0.1-1.6-0.2-3.2-0.4-4.9c-0.1-0.6-0.2-1.2-0.4-1.8c-0.6-2.1-1.9-4-1.7-6.3
		c0-0.2-0.3-0.5-0.5-0.8c-0.2,0.3-0.5,0.5-0.5,0.8c-0.1,2.4,0.2,4.8-1,7.1c-0.3,0.6-0.4,1.4-0.6,2c-0.1-0.8-0.4-1.6-0.4-2.3
		c0-4.2,0-8.3,0-12.5c0-0.3-0.4-0.6-0.6-0.9c-0.1,0.3-0.3,0.6-0.3,0.9c0,3.2-1.7,6-2,9.2c0,0.3-0.3,0.5-0.5,0.8
		c-0.2-0.4-0.4-0.8-0.5-1.3c-0.2-0.6-0.4-1.1-0.6-1.7c-0.1,0.4-0.4,0.9-0.4,1.3c-0.1,0.8-0.1,1.6-0.3,2.4c-0.1,0.4-0.7,0.7-1,1.1
		c-0.2-0.5-0.7-0.9-0.6-1.4c0-2.4,0-4.8-1-7.1c-0.2-0.4-0.3-0.9-0.4-1.3c-0.2,0.4-0.5,0.8-0.5,1.2c-0.1,1.2,0,2.3,0,3.5
		c0,1.6,0,1.6-2,4.1c-0.3,0.3-0.4,0.8-0.6,1.1c-0.1-0.4-0.4-0.9-0.4-1.3c0-3.5,0-7,0-10.5c0-0.3-0.4-0.7-0.6-1
		c-0.1,0.3-0.4,0.6-0.4,0.8c0,3.7,0,7.3,0,11c0,0.3-0.2,0.6-0.3,0.9c-0.2-0.3-0.6-0.6-0.6-0.9c-0.2-1.6,0.4-3.3-1-4.6
		c-0.3-0.3-0.3-0.9-0.5-1.3c-0.2,0.4-0.5,0.8-0.5,1.2c-0.1,1.7,0,3.3,0,5c0,0.3-0.3,0.5-0.5,0.8c-0.2-0.3-0.5-0.5-0.5-0.8
		c0-1.3,0-2.7,0-4c0-0.4-0.4-0.8-0.5-1.1c-0.1,0.4-0.3,0.9-0.4,1.3c-0.1,0.5,0.1,1,0,1.5c-0.1,0.4-0.4,0.7-0.6,1
		c-0.1-0.3-0.3-0.6-0.4-0.8c0-2.2,0-4.3,0-6.5c0-0.5-0.2-0.9-0.3-1.4c-0.2,0.5-0.4,1-0.7,1.4c-2,1.9-1.9,4.2-2,6.7
		c0,1.4-0.6,2.7-1,4.1c-0.1,0.2-0.4,0.4-0.6,0.6c-0.1-0.3-0.4-0.5-0.4-0.8c0-1.8,0-3.7,0-5.5c0-0.5-0.4-1-0.6-1.5
		c-0.5,0.5-1.1,0.9-1.3,1.5c-0.2,0.6,0,1.3-0.1,2c0,0.5-0.3,0.9-0.4,1.3c-0.2-0.5-0.6-1-0.6-1.6c-0.1-2.3,0-4.7,0-7
		c0-0.4-0.3-0.9-0.4-1.3c-0.2,0.4-0.5,0.8-0.5,1.2c0,3.2,0,6.3,0,9.5c0,0.8,0,1.7,0,2.5c0,0.3-0.3,0.5-0.5,0.7
		c-0.2-0.3-0.4-0.5-0.5-0.8c0-1.3,0.1-2.7-0.1-4c-0.1-1.1-0.7-2-0.9-3.1c-0.4-1.6,0.6-3.4-0.7-4.9c-0.1,1.8-0.2,3.6-0.4,5.4
		c-0.1,2.1-0.2,4.2-0.4,6.4c-1.5-2-0.3-4.3-0.6-6.4c-0.1-0.8,0-1.7,0-2.5c-0.1-0.6-0.3-1.2-0.4-1.8C9.4,147.6,9,148.3,9,149
		c0,1.6-2.4-1.2-2.1,1.2c0.2,1.1,0,2.3,0,3.5c0,0.2,0.1,0.4,0,0.5c-0.2,0.2-0.4,0.4-0.6,0.6c0,0-0.3-0.2-0.3-0.3
		c-0.1-0.5,0-1-0.1-1.5c-0.3-1.3,0.8-2.8-0.6-3.9c-0.1,1.3-0.2,2.6-0.4,3.9c0,0.3-0.2,0.6-0.3,0.9c-0.2-0.3-0.6-0.6-0.6-1
		c-0.1-0.8,0-1.7,0-2.5c0-0.4-0.3-0.9-0.4-1.3c-0.2,0.5-0.5,1.1-0.6,1.6c-0.1,2.2,0,4.3,0,6.5c0,0.3-0.3,0.5-0.5,0.8
		c-0.2-0.3-0.5-0.5-0.5-0.8c-0.6-3.9-2.1-7.6-2-11.7c0.1-5.5,0.1-11,0-16.5c-0.1-4.2,1.4-8.1,2-12.2c0-0.3,0.3-0.5,0.4-0.8
		c0.2,0.4,0.5,0.7,0.5,1.1c0.1,2.3,0,4.7,0,7c0,0.3,0.3,0.5,0.5,0.8c0.2-0.3,0.5-0.5,0.5-0.8c0.1-1.2,0-2.3,0-3.5
		c0-0.2,0.3-0.4,0.5-0.7c0.1,0.3,0.3,0.5,0.4,0.8c0.1,0.1,0,0.3,0,0.5c0.3,1.2-0.6,2.5,0.6,3.5c0.1-1.1,0.3-2.2,0.4-3.3
		c0.1-0.7,0-1.3,0-2c0-0.1,0.4-0.3,0.6-0.4c0.1,0,0.3,0.2,0.3,0.3c0,1.3,0,2.7,0,4c-0.1,1.7,0.5,1.6,1.4,0.5
		c0.2,0.5,0.4,1.1,0.6,1.6c0.2,0.4,0.3,0.9,0.5,1.3c0.2-0.4,0.5-0.9,0.5-1.3c0-2.8,0-5.7,0-8.5c0-0.4,0.3-0.8,0.5-1.1
		c0.1,0.4,0.4,0.9,0.4,1.3c0.1,1.7-0.1,3.3,0.1,5c0.2,1.8-0.7,3.8,0.6,5.5c0.1-1.8,0.2-3.6,0.4-5.3c0.1-0.9,0.8-1.7,0.9-2.6
		c0.3-1.6,0.3-3.2,0.4-4.8c1.4,1.5,0.4,3.4,0.6,5c0.2,2.5,0,5,0.1,7.5c0,0.4,0.3,0.9,0.4,1.3c0.2-0.4,0.5-0.8,0.5-1.2
		c0-2.5,0-5,0-7.5c0-0.4,0.3-0.8,0.5-1.3c0.2,0.4,0.4,0.9,0.5,1.3c0.1,0.7-0.2,1.4,0.1,2c0.3,0.6,1,1.1,1.6,1.6
		c0.1-0.6,0.3-1.2,0.4-1.8c0.1-1.5,0-3,0-4.5c0-0.5,0.4-0.9,0.7-1.3c0.4,0.5,1.1,0.9,1.3,1.5c0.2,1,0.2,2,0,3
		c-0.4,2.9,0.8,5.3,2,7.7c0.1,0.2,0.4,0.4,0.6,0.6c0.1-0.3,0.4-0.5,0.4-0.8c0-1.7-0.1-3.3,0.1-5c0.1-1-0.7-2.2,0.6-3
		c0.1,0.9,0.2,1.9,0.4,2.8c0,0.3,0.2,0.6,0.3,0.9c0.2-0.3,0.6-0.6,0.6-0.9c0.1-1.5,0-3,0-4.5c0-0.4,0.3-0.9,0.4-1.3
		c0.2,0.5,0.5,1,0.6,1.6c0.1,1.8,0,3.7,0,5.5c0,0.3,0.3,0.5,0.4,0.8c0.2-0.2,0.4-0.5,0.5-0.7c0.8-1.6,1.2-3.3,1-5.1
		c-0.1-0.7,0.4-1.4,0.5-2.1c0.1,0.6,0.4,1.2,0.4,1.8c0,3.3,0,6.7,0,10c0,0.3,0.4,0.6,0.6,0.9c0.1-0.3,0.3-0.6,0.3-0.9
		c0-3.7,0-7.3,0-11c0-0.3,0.2-0.6,0.3-0.9c0.2,0.3,0.6,0.6,0.6,0.9c0.1,0.9-0.2,2.1,1.4,2c0.2,0,0.6,1,0.6,1.6c0.1,1.8,0,3.7,0,5.5
		c0,0.3,0.3,0.5,0.5,0.8c0.2-0.2,0.4-0.5,0.5-0.7c1.1-2.9,1.1-6,1-9.1c0-0.3,0.4-0.7,0.6-1.1c0.1,0.3,0.3,0.5,0.4,0.8
		c0.3,1,0.7,2,1,3.1c0.2,0.6,0.3,1.2,0.4,1.8c0.2-0.7,0.4-1.3,0.6-2c0.1-0.3,0.3-0.6,0.4-0.8c0.2,0.2,0.5,0.4,0.6,0.6
		c0.7,2.5,1.3,5.1,2,7.7c0.1,0.5,0.4,1,0.6,1.5c0.1-0.4,0.4-0.9,0.4-1.3c0-4.2,0-8.3,0-12.5c0-0.3,0.4-0.6,0.6-0.9
		c0.1,0.3,0.3,0.6,0.3,0.9c-0.1,2.8,1.8,5.3,1,8.1c-0.1,0.2,0.3,0.5,0.4,0.8c0.2-0.4,0.5-0.7,0.6-1.1c0.4-2.2,0.8-4.3,1.2-6.5
		c0.2-0.9,0.5-1.8,0.8-2.7c0.3-1.2-0.6-2.5,0.6-3.5c0.1,1.1,0.3,2.2,0.4,3.3c0.1,1,0,2,0,3c0.1,1.1,0.2,2.2,0.3,3.4
		c1.3-0.9,0.4-2.2,0.7-3.4c0.1-0.3,0-0.7,0.1-1c0-0.1,0.3-0.4,0.3-0.3c0.2,0.1,0.6,0.3,0.6,0.5c0,1.8,0,3.7,0,5.5
		c0,0.6,0.3,1.2,0.4,1.8c0.2-0.5,0.5-1.1,0.5-1.6c0-3.7,0-7.3,0-11c0-0.8,0-1.7,0-2.5c0-0.3,0.3-0.5,0.5-0.8
		c0.2,0.3,0.4,0.5,0.5,0.8c0.1,0.7,0.1,1.4,0,2c-0.7,3,1.2,5.7,1,8.6c0,0.2,0.4,0.4,0.6,0.5c0,0,0.3-0.2,0.3-0.3
		c0.1-0.1,0-0.3,0-0.5c0.3-0.9-0.7-2.2,0.7-2.9c0.1,1,0.3,1.9,0.3,2.9c0,2.7,0,5.3,0,8c0,0.3,0.2,0.6,0.4,0.8c0.2-0.3,0.6-0.7,0.6-1
		c0-3.8,0-7.7,0-11.5c0-0.4,0.3-0.9,0.4-1.3c0.2,0.4,0.5,0.8,0.5,1.2c0,4.2,0,8.3,0,12.5c0,1.2,0,2.3,0,3.5c0,0.3,0.3,0.5,0.5,0.8
		c0.2-0.3,0.4-0.5,0.5-0.8c0.1-0.8,0.1-1.7,0-2.5c-0.4-2.6,0.7-5,1.3-7.5c0.2-0.7,0.5-1.5,0.7-2.2c0.2-0.9,0.2-1.9,0.4-2.9
		c1.4,0.7,0.4,1.9,0.7,2.9c0.3,1,0.7,2.1,1,3.1c0.1,0.3,0.3,0.5,0.4,0.8c0.2-0.2,0.5-0.4,0.5-0.7c0.4-1.4,0.7-2.7,1-4.1
		c0.1-0.4,0.4-0.7,0.6-1.1c0.1,0.4,0.4,0.9,0.4,1.3c0.1,0.7,0,1.3,0,2c0,0.2,0.4,0.3,0.6,0.4c0.1,0,0.3-0.2,0.3-0.3c0-0.5,0-1,0-1.5
		c0.1-0.6,0.2-1.2,0.3-1.9c0.2,0.6,0.4,1.3,0.7,1.9c0.1,0.3,0.3,0.6,0.4,0.8c0.2-0.4,0.6-0.7,0.6-1.1c0.1-2,0-4,0-6
		c0-0.3,0.3-0.5,0.4-0.8c0.2,0.2,0.5,0.5,0.5,0.7c0.1,0.8,0,1.7,0,2.5c0.3,3.7,0.6,7.4,1,11.1c0,0.2,0.4,0.4,0.6,0.6
		c0.1-0.3,0.4-0.6,0.4-0.8c0-3.3,0-6.7,0-10c0-0.3,0.4-0.6,0.6-0.9c0.1,0.3,0.3,0.6,0.3,0.9c0.1,2.3,0.2,4.6,0.4,6.9
		c1.5-2.2,0.3-4.6,0.6-6.9c0.2-1.5,0-3,0.1-4.5c0-0.4,0.3-0.9,0.4-1.3c0.2,0.5,0.6,1.1,0.6,1.6c0.1,2.8,0,5.7,0,8.5
		c0,0.3,0.3,0.5,0.5,0.8c0.2-0.2,0.5-0.5,0.5-0.7c0.1-0.8,0-1.7,0-2.5c0-0.3,0.3-0.5,0.5-0.7c0.2,0.3,0.4,0.5,0.4,0.8
		c0.1,0.7,0,1.3,0,2c0.1,0.4,0.4,0.7,0.6,1.1c0.1-0.3,0.4-0.6,0.4-0.8c0-1.7,0-3.3,0-5c0-0.3,0.4-0.6,0.6-0.9
		c0.1,0.3,0.3,0.6,0.3,0.9c0.3,1.4,0.7,2.7,1,4.1c0.1,0.3,0.3,0.6,0.4,0.8c0.2-0.4,0.5-0.7,0.6-1.1c0-3.7,0-7.3,0-11
		c0-0.3,0.3-0.5,0.5-0.8c0.2,0.2,0.5,0.5,0.5,0.7c0,1.5,0.2,3,0,4.5c-0.4,3.9,1.7,7.4,2.1,11.2c0.1,0.5,0.9,1,1.3,1.4
		c0.2-0.5,0.5-1,0.6-1.5c0.4-2.9,0.7-5.7,1-8.6c0-0.3,0.3-0.5,0.5-0.8c0.2,0.3,0.5,0.5,0.5,0.8c0,2.3,0,4.7,0,7
		c0,0.4,0.3,0.8,0.5,1.2c0.1-0.4,0.2-0.9,0.5-1.3c0.1-0.2,0.8-0.3,0.9-0.2c0.2,0.4,0.3,0.9,0.4,1.3c0.2-0.4,0.4-1.1,0.7-1.3
		c1.2-0.8,1-2,1-3.1c0-2,0-4,0-6c0-0.4,0.3-0.9,0.4-1.3c0.2,0.4,0.5,0.8,0.5,1.1c0,2.5,0,5,0,7.5c0,0.8-0.3,1.8,0.1,2.5
		c0.4,0.8,1.3,1.6,2,1.7c1.3,0.2,0.9-1.1,0.9-1.8c0.1-1.8,0.1-3.7,0-5.5c-0.1-1.6,1.4-2.8,1.1-4.6c-0.2-1.6,0.1-3.2,0.3-4.9
		c1.3,1.5,0.2,3.3,0.7,4.9c1.3,3.5,0.9,7,1,10.6c0,0.4,0.3,0.9,0.4,1.3c0.2-0.4,0.5-0.8,0.5-1.2c0-2.5,0-5,0-7.5
		c0-0.4,0.3-0.9,0.5-1.3c0.2,0.4,0.5,0.9,0.5,1.3c0,3.3,0,6.7,0,10c0,0.5,0.4,1.1,0.5,1.6c0.1-0.6,0.4-1.2,0.4-1.8
		c0-5.3,0-10.7,0-16c0-0.3,0.4-0.7,0.6-1c0.1,0.3,0.3,0.6,0.4,0.8c0.1,0.5,0.1,1,0,1.5c-0.8,5.6,1.4,11,1,16.6
		c0,0.3,0.2,0.6,0.4,0.8c0.2-0.3,0.5-0.7,0.6-1c0.8-4.2,0.6-8.6,2-12.7c0.3-1.1,0-2.3,0.1-3.5c0.1-1.5,0.4-3.1,0.6-4.6
		c0.1,1.6,0.4,3.2,0.4,4.8c0.1,2.2-0.1,4.3,0.1,6.5c0.1,1.2-0.7,2.5,0.6,3.5c0.1-1.1,0.2-2.2,0.4-3.3c0-0.2-0.1-0.4,0-0.5
		c1.3-1.4,0.7-3.4,1.4-4.9c1.4,1.5,0.4,3.4,0.5,5.1c0.2,2.8,0,5.7,0.1,8.5c0,0.8,0.3,1.5,0.4,2.3c0.2-0.7,0.3-1.5,0.6-2.2
		c0.1-0.3,0.3-0.5,0.5-0.7c0.2,0.4,0.3,0.9,0.5,1.3c0.1,0.1,0.1,0.4,0.2,0.4c0.2,0,0.6,0,0.7-0.2c0.1-0.3,0.1-0.6,0.1-1
		c0-0.8,0-1.7,0-2.5c0.4-4.9-0.8-9.8,0.9-14.6c0.6-1.6,0.3-3.5,0.4-5.3c1.3,1.7,0.4,3.6,0.6,5.4c0.2,1.7,0,3.3,0,5
		c0,0.5-0.2,1.2,0,1.5c2.6,2.3,1.9,5.3,2,8.2c0,0.2,0.3,0.5,0.5,0.7c0.2-0.3,0.4-0.5,0.4-0.8c0-2,0-4,0-6c0-0.8,0.3-1.5,0.6-2.2
		c0.2-0.3,0.7-0.5,1-0.8c0.1,0.3,0.3,0.6,0.3,0.9c0,4,0,8,0,12c0,0.3,0.2,0.6,0.3,0.9c0.2-0.3,0.6-0.6,0.6-1c0.1-1.7-0.1-3.4,0.1-5
		c0.1-0.8,0.5-2.3,2.1-1.3c0.1,0.1,0.7,0,0.7-0.1c0.1-0.6,0-1.3,0.1-2c0.3-2.2-0.7-4.5,0.6-6.6c0.1,2.1,0.3,4.2,0.4,6.3
		c0,1-0.1,2,0,3c0.3,2.5-0.7,5,0.6,7.4c0.1-2.5,0.2-4.9,0.4-7.4c0-0.5,0.2-0.9,0.4-1.3c0.5,0.4,1.2,0.7,1.4,1.2
		c0.3,0.7,0.2,1.6,0.3,2.4c0.1,0.4,0.3,0.9,0.5,1.3c0.2-0.4,0.5-0.8,0.5-1.3c0-4.3,0-8.7,0-13c0-1,0-2,0-3c0-0.2,0.3-0.5,0.5-0.7
		c0.2,0.3,0.4,0.5,0.4,0.8c0.1,0.7,0,1.3,0,2c0,1.5,0.1,3,0,4.5c-0.1,1.3,0.4,1.9,1.7,1.6c2.1-0.4,2.6,0.6,2.4,2.5c-0.1,1-0.1,2,0,3
		c0.1,0.8-0.8,2,0.6,2.3c0.5,0.1,1.3-0.4,1.6-0.8c0.4-0.6,0.7-1.4,0.7-2.1c0.1-1.7,0-3.3,0.1-5c0-0.3,0.3-0.5,0.4-0.8
		c0.2,0.4,0.4,0.7,0.6,1.1c0.3,1,0.6,1,1,0c0.8-1.6,1-3.3,1-5.1c0-1.3-0.7-2.8,0.6-4c0.1,1.3,0.3,2.6,0.4,3.8
		c0.3,4.4,0.7,8.7,1,13.1c0,0.3,0.5,0.6,0.8,1c0.4-0.4,1-0.7,1.1-1.1c0.2-1,0-2,0.1-3c0-0.3,0.3-0.5,0.4-0.8
		c0.2,0.2,0.5,0.4,0.5,0.7c0.1,1.2,0,2.3,0,3.5c0,0.3,0.3,0.5,0.5,0.8c0.2-0.3,0.5-0.5,0.5-0.8c0-2.8,0-5.7,0-8.5
		c0-0.5,0.4-1.1,0.5-1.6c0.1,0.6,0.4,1.2,0.4,1.8c0.1,1.8-0.1,3.7,0.1,5.5c0.1,1.2-0.6,2.5,0.6,3.5c0.1-1.1,0.2-2.2,0.4-3.3
		c0.1-0.4,0.9-0.7,0.9-1.1c0.2-1.4,0.3-2.9,0.4-4.3c1.4,1.5,0.3,3.4,0.6,5c0.2,1,0,2,0.1,3c0,0.3,0.3,0.5,0.4,0.8
		c0.2-0.2,0.6-0.5,0.5-0.7c-0.5-2.2,0.6-4.1,1-6.1c0.1-0.4,0.4-0.7,0.6-1.1c0.1,0.4,0.3,0.9,0.4,1.3c0.1,0.8,0.1,1.6,0.3,2.4
		c0.3,1,0.7,2,1,3.1c1.3-0.9,0.5-2.3,0.6-3.4c0.2-1.4-0.3-2.9,1-4.1c0.3-0.3,0.3-0.8,0.5-1.3c0.2,0.4,0.5,0.8,0.5,1.2
		c0,2.3,0,4.7,0,7c0,0.6,0.3,1.2,0.5,1.7c0.2-0.6,0.3-1.4,0.8-1.6c0.4-0.2,1.6,0.3,1.7,0.1c0.4-1-0.6-2.4,0.8-3.3
		c0.1,1.3,0.2,2.6,0.3,3.9c0,0.7,0,1.3,0,2c0,0.3,0.3,0.6,0.4,0.8c0.2-0.4,0.4-0.7,0.6-1.1c1.4-3.4,0.9-7,1-10.6
		c0-0.4,0.3-0.8,0.5-1.2c0.2,0.4,0.4,0.9,0.4,1.3c0.1,1.5,0,3,0,4.5c0.1,1.7-1,4,1.9,4.6c-0.3,1.4,0.5,2.4,1.1,3.6
		c0.2,0.3,0.5,0.5,0.7,0.8c0.1-0.1,0.3-0.3,0.3-0.4c-0.4-2.6,2.1,0.5,2.2-1.1c0-0.3,0.5-0.5,0.7-0.7c0.1-0.1,0.1-0.3,0.1-0.4
		c0-1.8-0.1-3.7,0-5.5c0.1-1.5,0.6-3.1,1-4.6c0.3-1.3-0.8-2.8,0.6-3.9c0.1,1.3,0.2,2.6,0.4,3.9c0,0.3,0.2,0.6,0.4,0.8
		c0.2-0.3,0.6-0.6,0.6-1c0.1-1.2,0-2.3,0-3.5c0-0.4,0.3-0.9,0.4-1.3c0.2,0.4,0.5,0.7,0.6,1.1c0.4,4.9,0.7,9.7,1,14.6
		c0,0.4,0.3,0.8,0.5,1.2c0.2-0.4,0.4-0.9,0.4-1.3c0.3-1.9-0.7-3.9,0.6-5.7c1.2-1.6-0.7-4,1.4-5.4c0-2.8,0-5.7,0-8.5
		c0-0.3,0.2-0.6,0.4-0.8c0.2,0.3,0.6,0.7,0.6,1c-0.3,5.6,1.7,11,1.1,16.6c0,0.4,0.3,0.9,0.5,1.3c0.2-0.4,0.4-0.8,0.5-1.3
		c0.1-0.7,0-1.3,0-2c0-0.2,0.3-0.4,0.5-0.7c0.1,0.3,0.4,0.5,0.4,0.8c0.1,0.7,0,1.3,0,2c0.1,0.4,0.4,0.7,0.6,1
		c0.1-0.3,0.4-0.6,0.4-0.8c0-2.3,0-4.7,0-7c0-0.5,0-1,0-1.5c0-0.1,0.2-0.4,0.3-0.3c0.2,0.1,0.6,0.2,0.7,0.3c0.4,2.5,0.7,5.1,1,7.6
		c0.1,1-0.4,3,1.5,0.9c0.2,0.6,0.3,1.2,0.5,1.8c0.2,0.7,0.4,1.4,0.6,2.1c0.1-0.8,0.2-1.6,0.4-2.3c0.1-0.5,0.4-1,0.6-1.5
		c0.1,0.4,0.3,0.9,0.4,1.3c0.1,0.3,0,0.7,0,1c0,0.2,0,0.3,0,0.5c0.1,0.3,0.2,0.6,0.3,0.9c0.2-0.3,0.6-0.6,0.6-0.9
		c0.1-1.2,0-2.3,0-3.5c0-2.7,0-5.3,0-8c0-0.5,0.5-1.3,0.8-1.4c1.2-0.2,1.3,0.8,1.1,1.6c-0.6,4,1.1,7.7,1,11.6c0,0.3,0.3,0.5,0.5,0.8
		c0.2-0.3,0.4-0.5,0.5-0.8c0.1-0.8,0-1.7,0-2.5c0-0.2,0.4-0.4,0.5-0.6c0.1,0.3,0.4,0.5,0.4,0.8c0.1,0.5,0,1,0,1.5
		c0,0.2,0.4,0.3,0.6,0.5c0.1,0,0.3-0.2,0.3-0.3c0.4-1.4,0.7-2.7,1-4.1c0.1-0.4,0.5-0.8,0.7-1.2c0.1,0.5,0.2,0.9,0.4,1.3
		c0,0.1,0.6,0.1,0.7,0.1c0.6-2.7,1-1.7,1.4,0.1c0.2,0.9,0.5,1.8,0.8,2.7c0.3,0.8-0.7,1.9,0.6,2.4c0.1-0.8,0.1-1.6,0.4-2.3
		c0.4-0.9,2.4-0.3,2.1-2.1c0-0.3,1.9,0.5,1.8,1.3c-0.3,2.5,1.2,4.2,2.1,6.2c0.2,0.3,0.4,0.6,0.6,0.9c0.1-0.3,0.3-0.6,0.3-0.9
		c0-1.5-0.1-3,0.1-4.5c0-0.5,0.6-1.5,0.8-1.4c2.4,0.5,2.1-1.1,2.3-2.7c0.1-1.5,0.6-3.1,1-4.6c0.1-0.3,0.3-0.5,0.5-0.8
		c0.2,0.2,0.5,0.5,0.5,0.7c0,3,0,6,0,9c0,0.4,0.3,0.8,0.5,1.2c0.2-0.4,0.4-0.9,0.4-1.3c0.1-1.6-0.2-3.2,1-4.6
		c0.6-0.7-0.6-2.2,0.7-2.9c0.1,1,0.3,1.9,0.3,2.9c0.1,1.3,0,2.7,0,4c0,0.6,0.2,1.2,0.4,1.8c0.2-0.7,0.4-1.3,0.6-2
		c0.1-0.3,0.3-0.6,0.4-0.8c0.2,0.2,0.5,0.4,0.5,0.6c0.1,0.8,0,1.7,0,2.5c0,0.3,0.3,0.5,0.5,0.8c0.2-0.3,0.5-0.5,0.5-0.8
		c0-3.3,0-6.7,0-10c0-0.4,0.3-0.8,0.5-1.2c0.2,0.4,0.4,0.9,0.4,1.3c0.1,0.5-0.1,1,0,1.5c0.5,1.3,1.1,2.7,1.6,4
		c0.1-1.3,0.2-2.6,0.3-3.9c0-0.7,0-1.3,0-2c0.1-0.6,0.2-1.2,0.4-1.8c0.2,0.7,0.5,1.3,0.6,2c0.4,1.7,0.7,3.4,1,5.1
		c0.1,0.3,0.3,0.5,0.5,0.8c0.2-0.3,0.5-0.5,0.5-0.8c0.1-0.8,0-1.7,0-2.5c0-0.2,0.3-0.4,0.5-0.7c0.1,0.3,0.4,0.5,0.4,0.8
		c0,1.3,0,2.7,0,4c0,0.6,0,1.3,0.3,1.9c0.3,0.5,0.9,0.7,1.4,1.1c0.1-0.5,0.2-0.9,0.3-1.4c0.1-0.4,0.3-0.9,0.4-1.3
		c0.2,0.3,0.6,0.7,0.6,1c0.1,1.8,0,3.7,0,5.5c0,0.4,0.3,0.9,0.4,1.3c0.2-0.4,0.5-0.8,0.5-1.2c0.1-2,0-4,0-6c0-0.3,0.3-0.5,0.5-0.8
		c0.2,0.3,0.4,0.5,0.5,0.8c0.1,0.5-0.1,1.1,0.1,1.5c0.1,0.3,0.7,0.7,1,0.7c0.3,0,0.9-0.5,0.9-0.8c0.1-2.6-0.2-5.1,1-7.6
		c0.5-0.9,0.3-2.2,0.4-3.3c0.6,1.2,1.3,2.3,1.6,3.5c0.3,0.9,0,2,0.1,3c0,0.4,0.3,0.9,0.4,1.3c0.2-0.4,0.5-0.8,0.5-1.2
		c0-3.5,0-7,0-10.5c0-0.4,0.3-0.8,0.5-1.3c0.2,0.4,0.5,0.9,0.5,1.3c0,4.7,0,9.3,0,14c0,0.5,0.4,1.1,0.6,1.6c0.1-0.4,0.4-0.9,0.4-1.3
		c0.1-0.8,0-1.7,0-2.5c0.1-1.7,0.8-0.8,1.3-0.3c0.2-0.5,0.6-0.9,0.6-1.4c0.1-3.7,0-7.3,0-11c0-0.4,0.3-0.9,0.4-1.3
		c0.2,0.5,0.6,1,0.6,1.6c0,3.8,0,7.7,0,11.5c0,0.3,0.3,0.5,0.4,0.8c0.2-0.2,0.5-0.5,0.5-0.7c0.1-1.2,0-2.3,0-3.5
		c0-0.3,0.3-0.5,0.5-0.7c0.2,0.3,0.4,0.5,0.5,0.8c0.1,0.3,0,0.7,0,1c0,1.5-0.1,3,0,4.5c0.1,1.2,0.4,2.4,0.6,3.6
		c0.1-1.1,0.3-2.2,0.4-3.3c0-0.2,0.4-0.3,0.6-0.4c0.1,0.3,0.3,0.6,0.3,0.9c0,1.7,0,3.3,0,5c0,0.3,0.2,0.6,0.3,0.9
		c0.2-0.3,0.6-0.6,0.6-0.9c0.1-2.3,0-4.7,0-7c0-1.1,0.4-0.7,1.1-0.4c1.2,0.5,2.7-0.3,2.8-1.4c0.1-0.8,0-1.7,0-2.5c0-2.2,0-4.3,0-6.5
		c0-0.4,0.4-0.7,0.6-1.1c0.1,0.3,0.4,0.6,0.4,0.8c0,1.3-0.1,2.7,0,4c0.3,2.6-0.8,5.4,0.6,7.9c0.1-2.6,0.2-5.2,0.3-7.9
		c0.1-2.3,0.2-4.6,0.4-6.9c1.5,2.2,0.4,4.6,0.6,7c0.2,2,0,4,0.1,6c0,0.6,0.3,1.2,0.4,1.8c0.2-0.5,0.4-1.1,0.6-1.6
		c0.5-2.1,1-4.2,1.6-6.3c0.1-0.4,0.7-0.6,1-0.9c0.1,0.3,0.4,0.6,0.4,0.8c0,2.2,0,4.3,0,6.5c0,0.5,0.4,0.9,0.6,1.4
		c0.1-0.5,0.2-0.9,0.4-1.3c0.1-0.1,0.9,0,0.9,0.1c0.1,1.5,0,3,0.1,4.5c0,0.7-0.5,1.8,0.9,1.9c1.3,0.1,1.1-0.9,1.1-1.7
		c0-2.2,0-4.3,0-6.5c0-0.3,0.6-0.7,0.9-0.8c0.3,0,1,0.5,1,0.7c0.1,2.3,0,4.7,0.1,7c0,0.4,0.3,0.8,0.5,1.2c0.4-0.4,0.9-0.6,1-1.1
		c0.3-0.7,0.3-1.5,0.4-2.3c0.1-0.8,0.2-1.6,0.3-2.4c1.5,0.4,0.3,1.6,0.7,2.3c0.1,0.1,0.2,0.2,0.3,0.4c0.4,0.4,0.7,0.7,1.1,1.1
		c0.2-0.4,0.5-0.8,0.5-1.1c0-4,0-8,0-12c0-1,0-2,0-3c0-0.3,0.3-0.5,0.5-0.8c0.2,0.3,0.5,0.5,0.5,0.8c0,4.7,0,9.3,0,14
		c0,0.4,0.3,0.8,0.5,1.2c0.1-0.4,0.3-0.9,0.4-1.3c0-0.2,0-0.4,0-0.5c0.2-0.4,0.4-0.7,0.6-1c0.1,0.3,0.3,0.6,0.4,0.8
		c0.1,0.1,0,0.3,0,0.5c0.1,1.5,0.2,2.9,0.3,4.4c1.6-1.2,0.5-2.9,0.6-4.4c0.2-1.8,0.5-1.4,1.5-0.6c0.7,0.5,1.5,0.1,1.5-1.1
		c0-2,0-4,0-6c0-0.3,0.3-0.5,0.5-0.8c0.2,0.3,0.5,0.5,0.5,0.8c0,3.3,0,6.7,0,10c0,0.4,0.4,0.8,0.5,1.1c0.4-0.4,0.9-0.7,1-1.1
		c0.3-0.9,0.4-1.9,0.4-2.8c0.1-3,0.2-5.9,0.3-8.9c1.5,2.9,0.3,5.9,0.6,8.9c0.2,1.3,0,2.7,0.1,4c0,0.3,0.5,0.6,0.8,0.9
		c0.4-0.4,1-0.7,1.1-1.1c0.4-2.7,0.7-5.4,1.1-8.1c0-0.3,0.3-0.5,0.5-0.8c0.2,0.3,0.5,0.5,0.5,0.8c0,3.2,0,6.3,0,9.5
		c0,0.5,0.4,1.1,0.5,1.6c0.1-0.4,0.3-0.9,0.4-1.3c0.2-1.4-0.4-2.9,0.9-4.2c0.7-0.7-0.6-2.4,0.8-3.2c0.1,1.1,0.2,2.2,0.3,3.4
		c0,0.7,0,1.3,0.1,2c0,0.2,0.5,0.5,0.8,0.4c0.4-0.1,1.1-0.4,1.1-0.6c0.1-1.5,0-3,0.1-4.5c0-0.3,0.3-0.5,0.4-0.8
		c0.2,0.2,0.5,0.4,0.5,0.7c0.4,1.7,0.7,3.4,1,5.1c0.1,0.4,0.4,0.7,0.6,1.1c0.1-0.4,0.4-0.9,0.4-1.3c0-3.8,0-7.7,0-11.5
		c0-0.3,0.4-0.6,0.6-0.9c0.1,0.3,0.3,0.6,0.3,0.9c0,5,0,10,0,15c0,0.3,0.4,0.5,0.7,0.8c0.1-0.3,0.2-0.6,0.3-0.9c0-0.2,0-0.3,0-0.5
		c0.1-0.4,0.3-0.9,0.4-1.3c0.2,0.5,0.4,1,0.6,1.6c0.2,0.4,0.3,0.9,0.5,1.3c0.2-0.4,0.4-0.8,0.5-1.2c0.1-0.3,0-0.7,0-1s-0.1-0.8,0-1
		c2.9-3.5,1.8-7.7,2-11.7c0.1-1.3-0.1-2.7,0.1-4c0.2-1.3-0.8-2.8,0.6-3.9c0.1,1.3,0.2,2.6,0.4,3.9c0,0.3,0.2,0.6,0.3,0.9
		c0.2-0.3,0.6-0.6,0.6-0.9c0-2.7,0-5.3,0-8c0-0.6,0.3-1.2,0.4-1.8c0.2,0.7,0.5,1.4,0.6,2.1c0.1,2.3,0,4.7,0,7c0,0.3,0.3,0.5,0.5,0.8
		c0.2-0.2,0.5-0.5,0.5-0.7c0-2.7,0-5.3,0-8c0-0.4,0.3-0.8,0.5-1.2c0.2,0.4,0.4,0.9,0.4,1.3c0,5.8,0,11.7,0,17.5c0,1.3,0,2.7,0,4
		c0,0.4,0.4,0.7,0.6,1.1c0.1-0.3,0.4-0.6,0.4-0.8c0-1.7-0.1-3.3,0-5c0.2-2-0.8-4.1,0.6-5.9c0.1,2,0.3,3.9,0.3,5.9
		c0,1.5,0.3,2.8,1,4.1c0.3,0.5-0.6,1.8,0.8,1.5c0.5-0.1,1.1-1.2,1.2-1.9c0.2-1.6,0-3.3,0.1-5c0-0.2,0.3-0.5,0.5-0.7
		c0.2,0.3,0.4,0.5,0.4,0.8c0.1,0.7-0.1,1.3,0,2c0.1,0.7,0.4,1.4,0.6,2c0.4-0.7,0.9-1.3,1-2.1c0.2-1.6,0.3-3.2,0.4-4.9
		c0.1-2.3,0.3-4.6,0.4-6.8c1.5,2.2,0.3,4.7,0.6,7c0.2,1.3,0,2.7,0,4c0,0.6,0.3,1.2,0.4,1.8c0.2-0.5,0.5-1.1,0.5-1.6
		c0-3.7,0-7.3,0-11c0-0.8,0-1.7,0-2.5c0-0.3,0.3-0.5,0.5-0.8c0.2,0.3,0.4,0.5,0.5,0.8c0.1,0.3,0,0.7,0,1c0.3,6,0.7,12.1,1,18.1
		c0,0.4,0.4,0.7,0.6,1c0.1-0.3,0.3-0.6,0.4-0.8c0.1-0.7-0.1-1.4,0-2c0.1-0.6-0.7-1.6,0.6-1.9c0.1,0.6,0.2,1.2,0.3,1.9
		c0.1,0.3,0.2,0.6,0.4,0.8c0.2-0.3,0.6-0.7,0.6-1c0-4.5,0-9,0-13.5c0-1.2,0-2.3,0-3.5c0-0.3,0.3-0.5,0.4-0.8
		c0.2,0.2,0.6,0.5,0.5,0.6c-1.2,4.2,2.9,7.5,2.1,11.7c0,0.1,0.4,0.3,0.6,0.5c0,0,0.3-0.2,0.3-0.3c0-0.5,0-1,0-1.5c0-3.3,0-6.7,0-10
		c0-0.8-0.3-2.2,0.1-2.4c1.6-0.9,0.7-3.5,1.3-3.3c1.4,0.4,0.6,2.2,0.6,3.3c0.1,5,0,10,0.1,15c0,0.4,0.3,0.9,0.4,1.3
		c0.2-0.4,0.5-0.8,0.5-1.2c0.1-1.2-0.1-2.4,0.1-3.5c0.2-1.2,0.6-2.4,1-3.6c0.1-0.2,0.4-0.4,0.6-0.6c0.1,0.3,0.4,0.5,0.4,0.8
		c0,4.3,0,8.7,0,13c0,0.3,0.4,0.7,0.6,1c0.1-0.3,0.3-0.6,0.4-0.8c0-2.2,0-4.3,0-6.5c0-1.4,0.3-1.9,1.4-0.6c0.2-0.3,0.6-0.7,0.6-1
		c0.1-2.2,0-4.3,0-6.5c0-0.4,0.3-0.9,0.4-1.3c0.2,0.4,0.5,0.8,0.5,1.2c0.1,2,0,4,0,6c0,0.3,0.3,0.5,0.5,0.8c0.2-0.3,0.4-0.5,0.5-0.8
		c0.1-0.5-0.1-1.1,0.1-1.5c0.1-0.3,0.7-0.7,1.1-0.6c0.3,0,0.6,0.5,0.9,0.9c0.1,0.1,0,0.3,0,0.5c0.3,1.8-0.7,3.8,0.6,5.5
		c0.1-1.9,0.2-3.9,0.4-5.8c0.1-2,0.2-3.9,0.3-5.9c1.4,1.8,0.5,3.9,0.6,5.9c0.2,2.5,0,5,0.1,7.5c0,0.4,0.3,0.9,0.4,1.3
		c0.2-0.5,0.5-1,0.6-1.6c0.1-1.2,0-2.3,0-3.5c0-0.3,0.3-0.5,0.4-0.8c0.2,0.2,0.5,0.5,0.5,0.7c0,2.2,0,4.3,0,6.5
		c0,0.2,0.3,0.5,0.5,0.7c0.2-0.3,0.3-0.5,0.5-0.8c0.1-0.1,0-0.3,0-0.5c0.2-6-0.6-12.1,0.9-18.1c0.6-2.4-0.6-5,0.7-7.4
		c0.1,2.5,0.3,4.9,0.3,7.4c0.1,2-0.1,4,0,6c0.1,1.9-0.3,3.8,0.6,5.8c0.7,1.7,0.3,3.9,0.4,5.8c0,0.3,0.3,0.6,0.4,0.8
		c0.2-0.4,0.6-0.7,0.6-1.1c0-3,0-6,0-9c0-0.3,0.3-0.5,0.5-0.8c0.2,0.2,0.5,0.5,0.5,0.7c-0.3,3,0.3,5.7,2,8.2
		c0.4,0.5,0.5,1.3,0.7,1.9c0.1-0.6,0.3-1.2,0.3-1.9c0-5,0-10,0-15c0-0.3,0.2-0.6,0.3-0.9c0.2,0.3,0.6,0.6,0.6,1
		c0.2,2.2-0.7,4.7,1.8,6.3c0.2,0.1,0.1,0.6,0.2,0.9c0.1,0.8,0.1,1.6,0.2,2.4c0.5-0.2,0.9-0.4,1.4-0.6c0.1,0.4,0.2,0.9,0.4,1.3
		c0.5,1.3-1.3,3.5,1.6,3.8c0.2,0,0.4,1.2,0.3,1.8c-0.1,1.5,0.3,2.8,1,4.1c0.2,0.3,0.3,0.5,0.4,0.8c0.2-0.4,0.5-0.7,0.5-1.1
		c0-4.5,0-9,0-13.5c0-0.4,0.3-0.9,0.5-1.3c0.2,0.4,0.5,0.8,0.5,1.3c0,4.5,0,9,0,13.5c0,0.4,0.3,0.8,0.5,1.2c0.2-0.4,0.4-0.9,0.4-1.3
		c0-1.8,0-3.7,0-5.5c0-0.7,0.4-1.4,0.6-2c0.4,0.7,0.9,1.3,1,2.1c0.2,1.9,0.2,3.9,0.4,5.9c0,0.3,0.2,0.6,0.4,0.8
		c0.2-0.3,0.6-0.7,0.6-1c0-7.2,1.7-14.3,1.1-21.6c0-0.4,0.3-0.9,0.5-1.3c0.2,0.4,0.5,0.9,0.5,1.3c0,6,0,12,0,18
		c0,0.6,0.3,1.1,0.5,1.7c0.1-0.4,0.4-0.9,0.4-1.3c0.4-3.5-0.7-7.1,0.6-10.5c0.1,3.4,0.3,6.9,0.4,10.3c0,0.3,0,0.7,0,1
		c0,0.1,0.2,0.4,0.3,0.3c0.2-0.1,0.6-0.2,0.7-0.3c0.2-1.4,0.3-2.9,0.4-4.3c1.4,1.3,0.3,3,0.6,4.5c0.1,0.4,0.3,0.9,0.4,1.3
		c0.2-0.4,0.3-0.8,0.6-1.1c1-1,1-2.3,1-3.6c-0.1-2.8,0-5.7,0-8.5c0-0.5,0.4-1.1,0.5-1.6c0.1,0.6,0.4,1.2,0.4,1.8
		c0.1,0.8,0,1.7,0,2.5c0,0.5,0.2,1.3,0.3,1.3c2.5-0.1,1.2,2.3,2.1,3.1c1.2,1.1,0.2,2.6,0.7,3.7c0.6,1.4,1.4,2.8,2.1,4.1
		c0.1,0.1,0.2,0.2,0.3,0.3c0.2-0.3,0.4-0.5,0.5-0.8c0.1-0.7-0.1-1.3,0-2c0.1-0.7,0.4-1.4,0.6-2.1c0.1,0.8,0.3,1.5,0.4,2.3
		c0.1,0.5-0.1,1,0,1.5c0.1,0.4,0.4,0.7,0.6,1c0.1-0.3,0.3-0.6,0.3-0.8c0-1.7,0-3.3,0-5c0.1-3,0.2-5.9,0.3-8.9c1.5,2.9,0.2,6,0.6,8.9
		c0.1,0.8,0,1.7,0,2.5c0,0.5,0.2,0.9,0.4,1.3c0.2-0.5,0.6-1,0.6-1.6c0-4.5,0-9,0-13.5c0-1.2,0-2.3,0-3.5c0-0.4,0.3-0.9,0.4-1.3
		c0.2,0.4,0.5,0.8,0.5,1.2c0,3.3-0.2,6.7,0.1,10c0.2,2.1-1.7,4.9,1.8,6.2c0.2,0.1,0.1,1.2,0.2,1.9c0.1,0.9,0.4,1.7,0.6,2.6
		c0.1-0.9,0.3-1.9,0.4-2.8c0.1-0.5,0-1,0-1.5c0.3-2.5-0.7-5.1,0.6-7.5c0.1,2.5,0.2,4.9,0.4,7.4c0,0.3,0,0.7,0,1
		c0,0.1,0.3,0.4,0.3,0.3c0.2-0.1,0.5-0.2,0.6-0.4c0.1-0.1,0-0.3,0-0.5c0.3-5.5,0.7-11.1,1-16.6c0-0.4,0.3-0.9,0.5-1.3
		c0.2,0.4,0.5,0.8,0.5,1.2c0,4.3,0,8.7,0,13c0,1,0,2,0,3c0,0.3,0.3,0.5,0.5,0.7c0.2-0.3,0.4-0.5,0.5-0.8c0.1-0.5-0.1-1,0-1.5
		c0.1-0.5,0.4-1.1,0.6-1.6c0.1,0.4,0.3,0.9,0.4,1.3c0.3,1.5,0.8,3,1,4.6c0.2,1.6,0,3.3,0,5c0,0.2,0,0.4,0,0.5
		c0.1,0.1,0.3,0.4,0.3,0.3c0.2-0.1,0.6-0.3,0.6-0.4c0-2.7,0-5.3,0-8c0-0.7,0-1.3,0.1-2c0-0.1,0.2-0.2,0.3-0.4
		c0.2,0.2,0.6,0.4,0.6,0.6c0,2.2,0,4.3,0,6.5c0,0.3,0.3,0.5,0.5,0.8c0.2-0.2,0.5-0.5,0.5-0.7c0-3.3,0-6.7,0-10
		c0-0.4,0.3-0.8,0.5-1.2c0.2,0.4,0.3,0.9,0.5,1.3c1.3,2.9,1,6,1,9.1c0,1.4,0.6,1.6,1.8,1.6c1.2,0,1.3-0.6,1.3-1.5c0-3.5,0-7,0-10.5
		c0-0.3,0.2-0.6,0.3-0.8c0.2,0.3,0.6,0.7,0.6,1c-0.4,3.4,0.5,6.7,1,10.1c0,0.3,0.3,0.5,0.5,0.8c0.2-0.3,0.5-0.5,0.5-0.8
		c0-1.5-0.1-3,0.1-4.5c0.2-2,0.6-4.1,1-6.1c0-0.2,0.4-0.4,0.6-0.5c0.1,0.3,0.4,0.6,0.4,0.8c0,2.7,0,5.3,0,8c0,0.3,0.2,0.6,0.3,0.9
		c0.2-0.3,0.6-0.5,0.7-0.8c0.4-1,0.9-2,1-3.1c0.4-4.9,0.7-9.7,1.1-14.6c0-0.4,0.3-0.9,0.5-1.3c0.2,0.4,0.5,0.8,0.5,1.3
		c0,3.8,0,7.7,0,11.5c0,0.4,0.3,0.8,0.5,1.2c0.1-0.4,0.4-0.9,0.4-1.3c0-6,0-12,0-18c0-0.5,0.4-1,0.6-1.5c0.1,0.4,0.4,0.9,0.4,1.3
		c0,6.8,0,13.7,0,20.5c0,1-0.1,2,0.1,3c0.1,0.4,0.7,0.9,1.2,1c0.7,0.1,1.7,0.4,1.8-1c0.1-1.3,0.2-2.6,0.4-3.8c0.1-0.4,0.7-0.7,1-1.1
		c0.2,0.4,0.5,0.8,0.5,1.1c0.1,1.7,0,3.3,0,5c0,0.3,0.3,0.5,0.5,0.8c0.2-0.3,0.5-0.5,0.5-0.8c0-4.1,1.7-8,1-12.1
		c-0.1-0.8-0.2-1.7,0-2.5c0.3-0.9,1.1-1.6,1.6-2.5c0.1,0.8,0.3,1.6,0.3,2.4c0,2,0,4,0,6c0,1.9,0.3,3.6,2.4,4.5
		c0.4,0.2,0.4,1.4,0.6,2.1c0.1,0.3,0.3,0.5,0.5,0.8c0.2-0.3,0.5-0.5,0.5-0.8c0-2,0-4,0-6c0-0.4,0.4-0.8,0.5-1.1
		c0.4,0.4,0.9,0.6,1,1.1c0.3,0.7,0.4,1.5,0.4,2.3c0.1,1.3,0,2.7,0,4c0,0.1,0.2,0.4,0.3,0.3c0.2-0.1,0.6-0.3,0.6-0.4
		c-0.1-2.3,1.5-4.2,1.1-6.6c-0.6-3.1,0.1-6.1,0.9-9.1c0.1-0.3,0.3-0.5,0.5-0.8c0.2,0.3,0.4,0.5,0.5,0.8c0.1,1.2,0,2.3,0,3.5
		c0,3.8,0,7.7,0,11.5c0,0.4,0.4,0.7,0.6,1.1c0.1-0.4,0.3-0.9,0.4-1.3c0.2-0.5,0.4-1,0.6-1.5c0.1,0.4,0.3,0.9,0.3,1.4
		c0.1,0.7,0,1.3,0,2c0,0.3,0,0.7,0,1c0,0.1,0.3,0.4,0.3,0.3c0.2-0.1,0.6-0.3,0.6-0.4c0-2.3,0-4.7,0-7c0-0.7,0-1.3,0.1-2
		c0-0.1,0.3-0.4,0.3-0.3c0.2,0.2,0.6,0.4,0.6,0.5c0,1.8,0.2,3.7,0,5.5c-0.2,1.6,0.9,1.7,1.9,2.2c0.6,0.3,1,1.1,1.2-0.2
		c0.1-0.8,0.1-1.7,0-2.5c-0.2-3.9,1.5-7.6,1.1-11.6c-0.4-4-0.1-8-0.1-12c0-0.3,0.4-0.6,0.6-0.9c0.1,0.3,0.3,0.6,0.3,0.9
		c0,5,0.1,10,0,15c0,2.3,0.9,4.3,1.8,6.3c0.1,0.3,0.5,0.5,0.7,0.7c0.2-0.2,0.5-0.5,0.5-0.7c0.1-0.8,0-1.7,0-2.5
		c0-0.2,0.3-0.5,0.5-0.7c0.2,0.3,0.4,0.5,0.4,0.8c0.1,0.7,0,1.3,0,2c0.1,0.4,0.4,0.7,0.6,1.1c0.1-0.3,0.4-0.6,0.4-0.8
		c0-1.7,0-3.3,0-5c0-0.3,0.4-0.6,0.6-0.9c0.1,0.3,0.3,0.6,0.3,0.9c0,3,0,6,0,9c0,0.3,0.2,0.6,0.3,0.9c0.2-0.3,0.4-0.6,0.6-1
		c0.1-0.1,0-0.3,0-0.5c0.1-0.8,0.3-1.6,0.4-2.3c0.2,0.7,0.4,1.4,0.6,2.1c0.1,0.3-0.1,0.7,0,1c0.1,0.3,0.3,0.5,0.5,0.8
		c0.2-0.2,0.5-0.5,0.5-0.7c0-2.3,0-4.7,0-7c0-0.4,0.3-0.8,0.5-1.2c0.2,0.4,0.4,0.9,0.4,1.3c0,3.3,0,6.7,0,10c0,0.5,0.4,1,0.6,1.5
		c0.1-0.4,0.4-0.9,0.4-1.3c0-4.5,0-9,0-13.5c0-0.3,0.4-0.6,0.6-0.9c0.1,0.3,0.3,0.6,0.3,0.9c0,3.3,0,6.7,0,10c0,0.3,0.2,0.6,0.4,0.8
		c0.2-0.3,0.6-0.6,0.6-1c0.1-0.8,0-1.7,0.1-2.5c0.2-1.2,2.2,2.1,1.9-0.7c-0.1-1,0-2,0-3c0-0.2,0.3-0.4,0.5-0.7
		c0.2,0.3,0.4,0.5,0.4,0.8c0,1.3,0,2.7,0,4c0.1,0.8,0.3,1.5,0.6,2.2c0.2,0.3,0.7,0.5,1,0.7c0.1-0.3,0.3-0.6,0.3-0.9
		c0-3.7,0-7.3,0-11c0-0.3,0.2-0.6,0.4-0.8c0.2,0.3,0.6,0.7,0.6,1c0.1,1.5,0,3,0,4.5c0,4,0,8,0,12c0,0.4,0.3,0.9,0.4,1.3
		c0.2-0.4,0.5-0.7,0.5-1.1c0.5-6.7,1.5-13.3,1-20.1c0-0.3-0.1-0.7,0-1c0.1-0.3,0.3-0.4,0.5-0.7c0.1,0.3,0.4,0.5,0.4,0.8
		c0,1.3,0,2.7,0,4c0,5,0,10,0,15c0,0.3,0.4,0.7,0.6,1c0.1-0.3,0.3-0.6,0.4-0.8c0.4-2.4,0.6-4.7,1-7.1c0.1-0.4,0.5-0.6,0.8-1
		c0.4,0.4,1.1,0.7,1.1,1.1c0.1,1.7,0,3.3,0.1,5c0,0.3,0.3,0.5,0.4,0.8c0.2-0.2,0.4-0.4,0.5-0.7c0.4-1,1-2.1,1-3.1
		c-0.1-4.4,1.8-8.6,1.1-13.1c0-0.3,0.4-0.7,0.6-1c0.1,0.3,0.4,0.6,0.4,0.8c0,5.2,0,10.3,0,15.5c0,0.5,0.4,0.9,0.7,1.3
		c0.1-0.5,0.2-1.2,0.4-1.3c0.5-0.1,1.2,0.1,1.8,0.2c0.1-0.8,0-1.7,0.2-2.4c1.5-4.6,0.8-9.4,1-14.1c0-0.4,0.4-0.7,0.5-1.1
		c0.1,0.4,0.4,0.9,0.4,1.3c0,5.2,0,10.3,0,15.5c0,0.3,0.4,0.6,0.6,1c0.1-0.3,0.3-0.6,0.4-0.9c0.1-0.3,0-0.7,0-1
		c0.1-0.6,0.2-1.2,0.3-1.9c0.2,0.6,0.5,1.3,0.7,1.9c0.4,1.5,2.8,2.1,2,4.2c-0.1,0.2,0.3,0.5,0.5,0.7c0.2-0.3,0.4-0.5,0.5-0.8
		c0.1-0.3-0.1-0.8,0-1c2.9-3.2,1.8-7,2-10.7c0.1-1.4-0.5-3,1-4.1c0.3-0.2,0.3-0.9,0.4-1.3c0.2,0.5,0.6,1,0.6,1.6c0,4.5,0,9,0,13.5
		c0,0.3,0.3,0.5,0.4,0.8c0.2-0.2,0.5-0.5,0.5-0.7c-0.6-2.8,0.9-5.4,1.1-8.1c0.1-1.4-0.6-2.9,0.6-4.1c0.1,1.4,0.4,2.9,0.4,4.3
		c0.1,2.3-0.1,4.7,0.1,7c0.1,1.1-0.8,2.8,0.7,3.2c0.5,0.1-0.3-2.5,1.2-3.3c0.4-0.2,0.1-1.6,0.1-2.4c0-3,0-6,0-9
		c0-0.6,0.3-1.2,0.4-1.8c0.2,0.7,0.5,1.4,0.6,2.1c0.1,3.2,0,6.3,0,9.5c0,0.8,0,1.7,0,2.5c0,0.3,0.3,0.5,0.5,0.8
		c0.2-0.2,0.5-0.5,0.5-0.7c0.1-1.2,0-2.3,0-3.5c0-5.8,0-11.7,0-17.5c0-0.4,0.3-0.8,0.5-1.2c0.2,0.4,0.4,0.9,0.4,1.3
		c0.1,0.5-0.1,1,0,1.5c0.1,0.4,0.4,0.7,0.6,1.1c0.1-0.3,0.4-0.6,0.4-0.8c0-1.7,0-3.3,0-5c0-0.3,0.4-0.6,0.6-0.9
		c0.1,0.3,0.3,0.6,0.3,0.9c0,6.3,0,12.7,0,19c0,0.8,0,1.7,0,2.5c0,0.1,0.3,0.4,0.3,0.3c0.2-0.1,0.6-0.3,0.6-0.4c0.1-0.5,0-1,0-1.5
		c0.1-0.6,0.3-1.2,0.4-1.8c0.2,0.5,0.5,1.1,0.5,1.6c0.1,1.5,0,3,0,4.5c0,0.3,0.3,0.5,0.5,0.8c0.2-0.3,0.5-0.5,0.5-0.8c0-3,0-6,0-9
		c0-0.4,0.3-0.8,0.5-1.2c0.2,0.4,0.3,0.9,0.4,1.3c0.3,1.4,0.7,2.7,1,4.1c0.4,1.4-0.9,3.1,0.7,4.4c0.1-1.5,0.2-2.9,0.3-4.4
		c0.3-2.5,0.8-5,1-7.6c0.2-2.7,0-5.3,0.1-8c0-0.3,0.3-0.5,0.4-0.8c0.2,0.2,0.5,0.4,0.5,0.6c0.1,0.5,0,1,0,1.5
		c0.3,7.5,0.7,15.1,1,22.6c0,0.4,0.3,0.8,0.5,1.2c0.1-0.4,0.4-0.9,0.4-1.3c0-6.3,0-12.7,0-19c0-0.5,0.4-1,0.6-1.5
		c0.1,0.4,0.4,0.9,0.4,1.3c0,4.5,0,9,0,13.5c0,0.3,0.4,0.6,0.6,0.9c0.1-0.3,0.3-0.6,0.3-0.9c0-1.3,0-2.7,0-4c0-1,0.2-1.9,0.4-2.8
		c1.3,0.8,0.4,2,0.6,3c0.4,2.7,0.7,5.4,1,8.1c0,0.3,0.3,0.5,0.5,0.8c0.2-0.3,0.5-0.5,0.5-0.8c0-3,0-6,0-9c0-0.4,0.3-0.8,0.5-1.1
		c0.1,0.4,0.3,0.9,0.4,1.3c0.1,0.5,0.2,1.3,0.3,1.3c2.2,0.2,2.6,2.1,3.4,3.6c0.8,1.4,3,1.2,3.3,3c0.2,1.5,0,3,0.1,4.5
		c0,0.4,0.4,0.8,0.5,1.1c0.1-0.4,0.4-0.9,0.4-1.3c0-2.1-0.2-4.2,1-6.1c0.3-0.4,0.5-0.9,0.7-1.3c0.4,0.5,1.2,0.9,1.2,1.5
		c0.1,2.2,0,4.3,0.1,6.5c0,0.3,0.3,0.5,0.4,0.8c0.2-0.2,0.5-0.4,0.5-0.7c0.4-1.4,0.7-2.7,1-4.1c0.2-0.7,0.4-1.4,0.6-2.1
		c0.1,0.8,0.3,1.6,0.4,2.3c0.3,1.5-0.8,3.2,0.6,4.5c0.1-1.5,0.2-2.9,0.4-4.4c0-0.3,0-0.7,0-1c0-0.1,0.3-0.4,0.3-0.3
		c0.2,0.1,0.6,0.3,0.6,0.4c0,1.7,0,3.3,0,5c0,0.4,0.3,0.9,0.4,1.3c0.2-0.5,0.6-1,0.6-1.6c0.1-3.5,0-7,0-10.5c0-0.3,0.3-0.5,0.4-0.8
		c0.2,0.2,0.5,0.5,0.5,0.7c0,2.3,0,4.7,0,7c0,0.8,0.2,2.1,0.5,2.2c1.8,0.5,2.2,3.1,4.1,2.8c0.8-0.1,1.1-0.4,1.8,0.1
		c0.7,0.5,1.6,0.2,1.5-1c0-1.7,0-3.3,0-5c0-0.3,0.3-0.5,0.5-0.8c0.2,0.2,0.5,0.5,0.5,0.7c0,1.8,0,3.7,0.1,5.5c0,0.1,0.8,0.4,0.8,0.3
		c1.1-1.9,3,1.6,4-0.6c6.3,2.1,12.8,0.5,19.2,1C561,137.1,561,137.5,561,137.8z"/>
</g>
<rect x="242.4" y="225.7" fill="none" width="106.7" height="44"/>
<text transform="matrix(1 0 0 1 242.3709 234.1854)"><tspan x="0" y="0" fill="#454545" font-family="'MyriadPro-Regular'" font-size="12">Joe Smooth</tspan><tspan x="0" y="14.4" fill="#454545" font-family="'MyriadPro-Regular'" font-size="12">Promised land</tspan><tspan x="0" y="28.8" fill="#454545" font-family="'MyriadPro-Regular'" font-size="12">1988</tspan></text>
<rect x="2" y="16.7" fill="none" width="136" height="48.7"/>
<text transform="matrix(1 0 0 1 1.9618 25.1865)"><tspan x="0" y="0" fill="#454545" font-family="'MyriadPro-Regular'" font-size="12">Jamie Principle</tspan><tspan x="0" y="14.4" fill="#454545" font-family="'MyriadPro-Regular'" font-size="12">Baby wants to ride</tspan><tspan x="0" y="28.8" fill="#454545" font-family="'MyriadPro-Regular'" font-size="12">1988</tspan></text>
<rect x="139" y="16.7" fill="none" width="107" height="54.7"/>
<text transform="matrix(1 0 0 1 139.038 25.1865)"><tspan x="0" y="0" fill="#454545" font-family="'MyriadPro-Regular'" font-size="12">Ce Ce Rogers</tspan><tspan x="0" y="14.4" fill="#454545" font-family="'MyriadPro-Regular'" font-size="12">Someday</tspan><tspan x="0" y="28.8" fill="#454545" font-family="'MyriadPro-Regular'" font-size="12">1987</tspan></text>
<rect x="297.7" y="16.7" fill="none" width="136" height="48.7"/>
<text transform="matrix(1 0 0 1 297.7047 25.1865)"><tspan x="0" y="0" fill="#454545" font-family="'MyriadPro-Regular'" font-size="12">Ten City</tspan><tspan x="0" y="14.4" fill="#454545" font-family="'MyriadPro-Regular'" font-size="12">Devotion</tspan><tspan x="0" y="28.8" fill="#454545" font-family="'MyriadPro-Regular'" font-size="12">1987</tspan></text>
<rect x="59.6" y="225.7" fill="none" width="136" height="44.5"/>
<text transform="matrix(1 0 0 1 59.5668 234.1857)"><tspan x="0" y="0" fill="#454545" font-family="'MyriadPro-Regular'" font-size="12">Fingers Inc.</tspan><tspan x="0" y="14.4" fill="#454545" font-family="'MyriadPro-Regular'" font-size="12">Distant planet</tspan><tspan x="0" y="28.8" fill="#454545" font-family="'MyriadPro-Regular'" font-size="12">1988</tspan></text>
<rect x="405" y="225.7" fill="none" width="136" height="41.7"/>
<text transform="matrix(1 0 0 1 404.9985 234.1857)"><tspan x="0" y="0" fill="#454545" font-family="'MyriadPro-Regular'" font-size="12">Jerry McAllister</tspan><tspan x="0" y="14.4" fill="#454545" font-family="'MyriadPro-Regular'" font-size="12">What I do for you</tspan><tspan x="0" y="28.8" fill="#454545" font-family="'MyriadPro-Regular'" font-size="12">1989</tspan></text>
<line fill="none" stroke="#ABABAB" stroke-miterlimit="10" x1="3" y1="92.5" x2="14.5" y2="59"/>
<line fill="none" stroke="#ABABAB" stroke-miterlimit="10" x1="139" y1="92.5" x2="150.5" y2="59"/>
<line fill="none" stroke="#ABABAB" stroke-miterlimit="10" x1="300" y1="92.5" x2="311.5" y2="59"/>
<line fill="none" stroke="#ABABAB" stroke-miterlimit="10" x1="60" y1="183" x2="71.5" y2="216.5"/>
<line fill="none" stroke="#ABABAB" stroke-miterlimit="10" x1="240" y1="183" x2="251.5" y2="216.5"/>
<line fill="none" stroke="#ABABAB" stroke-miterlimit="10" x1="411" y1="183" x2="422.5" y2="216.5"/>
</svg>
