<?xml version="1.0" encoding="utf-8"?>
<!-- Generator: Adobe Illustrator 18.1.1, SVG Export Plug-In . SVG Version: 6.00 Build 0)  -->
<!DOCTYPE svg PUBLIC "-//W3C//DTD SVG 1.1//EN" "http://www.w3.org/Graphics/SVG/1.1/DTD/svg11.dtd">
<svg version="1.1" id="Слой_1" xmlns="http://www.w3.org/2000/svg" xmlns:xlink="http://www.w3.org/1999/xlink" x="0px" y="0px"
	 width="561px" height="226px" viewBox="0 0 561 226" enable-background="new 0 0 561 226" xml:space="preserve">
<g id="amp">
	<path d="M387.6,73.7c0,3.2-0.1,6.3,0,9.5c0.2,2.9,0.8,5.7,0.9,8.6c0.2,3,0,6,0.1,9c0,0.3,0.3,0.6,0.4,0.8c0.2-0.2,0.5-0.4,0.6-0.6
		c0.4-0.8,0.7-1.7,1-2.6c0.1-0.3,0.3-0.5,0.5-0.7c0.2,0.3,0.4,0.5,0.4,0.8c0.1,1.2-0.1,2.3,0,3.5c0.2,1.5-0.7,3.2,0.6,4.6
		c0.5-1.5,1-2.9,1.4-4.4c0.1-0.3,0-0.7,0-1c0-0.1,0.3-0.4,0.3-0.3c0.2,0.1,0.6,0.3,0.6,0.4c0,1.7,0,3.3,0,5c0,0.4,0.3,0.9,0.4,1.3
		c0.2-0.4,0.6-0.8,0.5-1.1c-0.9-3.1,1.8-5.3,2.2-8.2c0.2-1.3,0.8-2.7,0.8-4.1c0-1.7-0.6-3.9,0.2-4.9c1-1.2,0.6-3.5,1.2-3.4
		c1.4,0.4,0.5,2.1,0.7,3.3c0.1,1.1,0,2.3,0,3.5c0,0.6,0.3,1.2,0.4,1.8c0.2-0.5,0.5-1.1,0.5-1.6c0.1-2.5,0-5,0-7.5
		c0-0.3,0.3-0.5,0.5-0.8c0.2,0.3,0.5,0.5,0.5,0.8c0,4.3,0,8.7,0,13c0,2,0,4,0,6c0,0.8,0.3,1.5,0.5,2.3c0.8,2.2,3.1-0.4,3.3,0.5
		c0.3,1.3,0.4,2.7,1.6,3.3c0.4,0.2,1.5-1.8,1.5,0.4c0,0.2,0.4,0.4,0.5,0.6c0.1-0.1,0.3-0.2,0.3-0.4c0.1-0.3,0.1-0.6,0.1-1
		c0-4.6,1.7-9,1-13.6c0-0.3,0.2-0.6,0.3-0.9c0.2,0.3,0.7,0.6,0.6,0.9c-0.7,3.5,1.3,6.7,1.1,10.1c0,0.3,0.3,0.5,0.4,0.8
		c0.2-0.4,0.5-0.8,0.5-1.2c0-3.3,0-6.7,0-10c0-0.6,0.3-1.2,0.5-1.8c0.5,0.5,1,0.9,1.4,1.4c0.2,0.4,0,1,0.1,1.4
		c0.1,0.4,0.4,0.7,0.6,1c0.1-0.4,0.2-0.9,0.4-1.3c0.1-0.5,0.2-0.9,0.3-1.4c0.2,0.5,0.6,0.9,0.6,1.4c0.1,1.2,0,2.3,0,3.5
		c0,0.6,0.2,1.2,0.4,1.8c0.2-0.7,0.4-1.4,0.6-2.1c0.1-0.3-0.1-0.7,0-1c0.1-0.3,0.7-0.6,0.8-0.5c1.7,1.5,3.1,3.2,3.2,5.7
		c0,1.5,0,3,0,4.5c0,0.4,0.4,0.9,0.7,1.3c0.4-0.5,1.2-0.9,1.2-1.5c0.2-1.7,0.1-3.3,0.1-5c0-0.8,0-1.7,0-2.5c0-0.3,0.3-0.5,0.4-0.8
		c0.2,0.2,0.5,0.5,0.5,0.7c0.1,0.5,0,1,0,1.5c0,0.8,0.1,1.6,0.2,2.4c0.5-0.2,0.9-0.4,1.4-0.6c0.1,0.4,0.3,0.9,0.4,1.3
		c0.2,0.9,0.4,1.8,0.7,2.7c0.1,0.3,0.4,0.5,0.7,0.7c0.2-0.3,0.6-0.6,0.6-1c0.1-2.2,0-4.3,0-6.5c0-1.3,0-2.7,0-4
		c0-0.4,0.3-0.9,0.4-1.3c0.2,0.5,0.5,1.1,0.6,1.6c0.1,1.5,0.1,3,0,4.5c-0.1,1.8,0,3.3,2.5,2.9c0.1,0,0.3,0.8,0.5,1.2
		c0.1,0.3,0.4,0.5,0.5,0.7c0.2-0.3,0.4-0.5,0.4-0.8c0-1.2-0.2-2.1,1.6-2.4c1-0.1,1.5-1.4,1.5-2.8c-0.1-2.6,0.2-5.2,0.3-7.8
		c1.4,2.6,0.3,5.3,0.6,8c0.1,1.3,0.2,2.7,0,4c-0.2,1.6,0.7,1.8,1.8,2.2c0.5,0.2,1,1.2,1.2-0.1c0.2-1.3,0-2.7,0.1-4
		c0.1-0.8,0.3-1.6,0.6-2.3c0.2-0.4,0.7-0.6,1-0.9c0.1,0.3,0.3,0.6,0.4,0.8c0.5,1.1,1.4,2.2,1.1,3.6c0,0.1,0.5,0.5,0.8,0.4
		c0.4-0.1,1.1-0.4,1.1-0.6c0.1-1.7,0-3.3,0.1-5c0-0.4,0.3-0.9,0.4-1.3c0.2,0.5,0.4,1.1,0.6,1.6c0.2,0.4,0.3,0.9,0.5,1.3
		c0.2-0.4,0.5-0.9,0.5-1.3c0.1-1.2,0-2.3,0-3.5c0-1.3,0-2.7,0-4c0-0.4,0.3-0.8,0.5-1.1c0.1,0.4,0.4,0.9,0.4,1.3c0,2-0.1,4,0.1,6
		c0.1,1.7,0.4,3.5,1,5.1c0.4,1.1,1.1-0.4,1.3-0.3c0.9,0.6,1.7,1.4,2.5,2.2c1.4,1.3,1-0.1,1.1-0.8c0-0.1,0.2-0.4,0.3-0.4
		c0.2,0,0.7,0.1,0.7,0.2c0.1,0.7-0.1,1.4,0.1,2c0.2,0.8-0.8,2.1,0.7,2.2c0.4,0,0.8-1.5,1.3-2.3c1.3-2.1,0.9-4.4,1-6.6
		c0-0.3,0.3-0.5,0.5-0.7c0.2,0.3,0.3,0.5,0.5,0.8c0.1,0.1,0,0.3,0,0.5c0.1,0.8,0.1,1.6,0.2,2.4c0.5-0.2,0.9-0.4,1.4-0.6
		c0.1,0.6,0.2,1.2,0.4,1.9c0.1,0.6,0.2,1.2,0.3,1.9c0.8-1,2,0.2,2.4-0.2c1.3-1.3,2-0.4,2.8,0.5c0.6,0.7,1.2,0.6,1.8,0.1
		c1.5-1.1,1.9-2.6,1.6-4.4c0-0.2,0.3-0.5,0.5-0.8c0.2,0.2,0.4,0.5,0.5,0.7c0.4,1.2,0.7,2.4,1,3.6c0.2,0.8,0.4,1.7,0.6,2.6
		c0.1-0.9,0.2-1.9,0.4-2.8c0.3-1.6-0.7-3.4,0.7-4.9c0.1,1.6,0.2,3.2,0.4,4.9c0.1,0.6,0.1,1.3,0.4,1.8c0.2,0.4,0.7,0.7,1,1.1
		c0.2-0.4,0.5-0.7,0.6-1.1c0.4-3,1.5-6,1-9.1c0-0.2,0.3-0.4,0.5-0.7c0.2,0.3,0.4,0.5,0.4,0.8c0,2.2,0.1,4.3,0,6.5
		c-0.1,1.3,0.4,1.7,1.7,1.7c1.1,0,1.4-0.5,1.4-1.5c-0.1-2.2,0-4.3,0-6.5c0-0.3,0.4-0.6,0.6-0.9c0.1,0.3,0.3,0.6,0.3,0.9
		c0,1.8-0.2,3.7,0.1,5.5c0.5,2.9,0.8,1.1,1-0.1c0.3,0.1,0.9,0.2,0.9,0.3c0.1,1,0.1,2,0.2,2.9c0.3-0.1,0.7-0.2,0.8-0.4
		c0.3-0.3,0.4-0.8,0.6-1.1c0.1,0.3,0.4,0.5,0.4,0.8c0,1,0,2,1,2.6c0.3,0.1,0.7,0,1,0c-0.5-1.4,0.6-2.4,1-3.6
		c0.2-0.6,0.3-1.2,0.5-1.8c0.2,0.5,0.4,1.1,0.7,1.6c0.1,0.1,0.5,0.1,0.7,0c1.3-0.9,1.6-1.1,2.1,0.4c0.6,1.7,1.1,0.5,1.4,0.1
		c1.3-1.4,0.4-3.2,0.6-4.7c0.1-0.4,0.3-0.9,0.4-1.3c0.5,0.4,1.2,0.8,1.4,1.3c0.3,0.7,0.1,1.6,0.2,2.4c0.1,0.7,0.4,1.4,0.6,2.1
		c0.1-0.8,0.3-1.5,0.4-2.3c0.1-0.5,0-1,0-1.5c0.3-2-0.7-4.1,0.6-6c0.1,1.9,0.2,3.9,0.4,5.8c0,0.6,0.1,1.3,0.4,1.9
		c0.3,0.7,0.7,1.4,1,2.1c0.2-0.7,0.4-1.4,0.6-2.1c0.1-0.3,0-0.7,0-1c0.1-0.3,0.3-0.5,0.4-0.8c0.2,0.2,0.5,0.5,0.5,0.7
		c0.1,0.7,0,1.3,0,2c0.2,3,0.9,3.5,3.9,2.8c0.3-0.1,0.7,0,1.1-0.1c-0.6,2.7,3.3,1.7,3.2,4.1c0,1,1.8-2,2,0.7
		c0.1,1.3,1.3,0.4,2.2-0.1c0.6-0.3,1.6,0.3,2.4,0.5c0.1-1,0.2-1.9,0.3-2.9c0-0.3,0.3-0.6,0.4-0.8c0.2,0.2,0.5,0.4,0.6,0.6
		c0.2,0.8,0.1,2,0.6,2.2c1,0.5,2.2,0.7,3.4,0.7c3,0,5.9,0,8.6,1.4c0.5,0.3,1.3,0,2,0c1.5,0.1,2.9,0.2,4.4,0.3
		c-1.3,1.5-3,0.3-4.4,0.6c-1.9,0.4-4.2,0.1-5.5,1.2c-1.7,1.4-3.5,0.6-4.7,0.3c-1.6-0.4-2.5,1.6-3.8,0.6c-0.1,0.3-0.3,0.5-0.4,0.8
		c-0.2,0.7-0.4,1.3-0.6,2c-0.1-0.8-0.3-1.6-0.4-2.3c0-1.4,0-1.2-1.5-0.8c-4.9,1.5-5,1.3-8.1,5.3c-1,1.2-1.4,1.1-1.5-0.6
		c0-0.4-0.6-0.7-1-1.1c-0.2-0.1-0.5-0.1-0.7-0.2c-0.2,0.9-0.4,1.9-0.8,2.7c-0.1,0.3-0.9-2-1.4-0.1c-0.3,1.1,0,2.3-0.1,3.5
		c0,0.2-0.4,0.4-0.6,0.6c0,0-0.3-0.2-0.3-0.3c-0.1-0.1,0-0.3-0.1-0.5c-0.3-1,0.7-2.2-0.6-2.9c-0.2,0.9-0.5,1.8-0.7,2.7
		c-0.2,0.9-0.4,1.8-0.7,2.7c-0.1,0.4-0.3,0.9-0.4,1.3c-0.2-0.5-0.5-1-0.6-1.6c-0.1-1.2,0-2.3,0-3.5c0-0.3-0.3-0.5-0.5-0.8
		c-0.2,0.2-0.5,0.5-0.5,0.7c0,1.5,0,3-0.1,4.5c0,0.3-0.7,0.7-1,0.7c-0.3,0-0.9-0.6-0.9-0.8c0.6-2.9-1.2-4.2-3.4-5
		c-1.8-0.7-3.1-1.5-3.7-3.4c-0.2-0.6-1-1.1-1.6-1.6c-0.1,0.8-0.3,1.6-0.4,2.3c-0.1,0.5,0.1,1,0,1.5c-0.1,0.6-0.4,1.3-0.6,1.9
		c-0.1-0.6-0.2-1.2-0.3-1.9c-0.1-0.3-0.2-0.6-0.4-0.8c-0.2,0.5-0.4,1-0.6,1.5c-0.2,0.4-0.3,0.9-0.4,1.3c-0.2-0.4-0.4-0.7-0.5-1.1
		c-0.1-0.3,0-0.7,0-1c-0.1-0.3-0.3-0.5-0.5-0.8c-0.2,0.3-0.5,0.5-0.5,0.8c0,2.3,0,4.7,0,7c0,0.4-0.3,0.8-0.5,1.2
		c-0.1-0.4-0.4-0.9-0.4-1.3c-0.1-0.8,0.1-1.7,0-2.5c-0.2-1,0.7-2.2-0.6-3c-0.1,0.9-0.2,1.9-0.4,2.8c0,0.3-0.2,0.6-0.3,0.9
		c-0.2-0.3-0.6-0.6-0.7-0.9c-0.2-1.3-0.3-2.6-0.4-3.8c-1.3,1.2-0.4,2.7-0.6,4c-0.2,1.1,0,2.3-0.1,3.5c0,0.4-0.3,0.9-0.4,1.3
		c-0.2-0.4-0.5-0.8-0.5-1.2c-0.1-1.7-0.1-3.3,0-5c0.1-1.3-0.1-2.6-1-3.6c-0.4-0.4-0.7-0.8-1.1-1.2c-0.3,0.5-0.8,0.9-0.9,1.4
		c-0.4,2.8,0.7,5.7-0.7,8.5c-0.1-2.8-0.3-5.6-0.4-8.3c0-0.3,0-0.7,0-1c0-0.1-0.2-0.4-0.3-0.3c-0.2,0.1-0.6,0.2-0.6,0.4
		c-0.1,0.8,0,1.7,0,2.5c-0.1,0.7,0.5,1.8-0.8,1.9c-1.3,0.1-1.2-0.8-1.2-1.6c0-0.2,0-0.3,0-0.5c0.3-1.2-0.3-2.1-1.2-2.5
		c-1.5-0.5-0.6,1.2-1.3,1.7c-1.2,0.9-1.6,1-1.5-0.6c-0.3,0-1,0-1,0.1c-0.1,0.7,0,1.3-0.1,2c0,0.5-0.3,0.9-0.4,1.3
		c-0.2-0.5-0.5-1-0.6-1.6c-0.1-0.5,0-1,0-1.5c-0.2-1.2-0.7-0.7-1.2-0.2l-2.1,0.1c-1,2.3-2,4.7-1.7,7.3c0.1,0.6-0.2,1.2-0.4,1.8
		c-0.2-0.7-0.4-1.4-0.6-2.1c-0.1-0.5-0.1-1,0-1.5c0.5-2.9-0.8-5.3-2-7.7c-0.1-0.2-0.4-0.4-0.6-0.6c-0.1,0.3-0.3,0.5-0.4,0.8
		c-0.1,0.3,0.1,0.7,0,1c-0.4,1,1.1,3.1-1.2,3c-1.6-0.1-0.5-1.9-0.8-2.9c-0.1-0.3-0.2-0.6-0.4-0.9c-0.2,0.3-0.5,0.6-0.6,1
		c-0.4,1-0.9,2-1,3.1c-0.1,2.4-2.1-1.8-2.1,0.7c0,1.2,0.4,2.5-0.1,3.5c-0.5,1-0.9,2-0.9,3.1c-0.2,2.5,0.8,5-0.6,7.4
		c-0.1-2.5-0.2-4.9-0.3-7.4c0-0.3,0-0.7,0-1c-0.1-0.5-0.2-0.9-0.4-1.3c-0.2,0.5-0.4,1-0.6,1.5c-0.2,0.4-0.3,0.9-0.4,1.3
		c-0.2-0.4-0.5-0.7-0.5-1.1c-0.1-0.8,0-1.7,0-2.5c0-2.2,0-4.3,0-6.5c0-0.3-0.3-0.5-0.5-0.8c-0.2,0.3-0.5,0.5-0.5,0.8
		c0.1,2.8-2.9,4.7-2.1,7.7c0,0.1-0.4,0.3-0.6,0.3c-0.1,0-0.3-0.2-0.3-0.3c-0.3-2.4-0.7-4.7-1-7.1c-0.1-0.5-0.3-0.9-0.4-1.3
		c-0.5,0.2-0.9,0.4-1.4,0.6c-0.1-0.5-0.2-0.9-0.4-1.4c-0.3,0.2-0.7,0.4-0.8,0.6c-0.1,1.7,0.1,3.3-0.1,5c-0.3,2.3,0.9,4.8-0.6,7
		c-0.1-2.3-0.3-4.6-0.4-6.8c0-0.5,0-1,0-1.5c0-0.1-0.2-0.4-0.3-0.3c-0.2,0.1-0.6,0.2-0.6,0.4c-0.1,0.8,0,1.7,0,2.5
		c0,0.6-0.2,1.2-0.4,1.8c-0.2-0.7-0.2-1.5-0.6-2c-1.6-2.2-0.7-4.7-1-7.1c0-0.3-0.3-0.5-0.5-0.8c-0.2,0.3-0.5,0.6-0.5,0.8
		c0.2,1.7-0.2,2.6-2.1,2.2c-0.2,0-0.7,0.5-0.9,0.9c-0.1,0.3,0,0.7,0,1c-0.3,2,0.7,4.1-0.6,6c-0.1-1.9-0.3-3.9-0.4-5.8
		c0-0.8,0-1.7,0-2.5c-0.1-0.8-0.2-1.6-0.3-2.4c-0.6,0.8-1.3,1.6-1.6,2.5c-0.3,0.7,0,1.7-0.1,2.5c-0.1,0.6-0.3,1.2-0.4,1.8
		c-0.2-0.6-0.3-1.1-0.5-1.7c-0.2-0.4-0.3-0.8-0.5-1.2c-0.2,0.4-0.4,0.9-0.5,1.3c-0.1,0.3,0.1,0.7,0,1c-0.1,0.5-0.4,1.1-0.6,1.6
		c-0.1-0.4-0.4-0.9-0.4-1.3c-0.1-1.3,0-2.7,0-4c0-0.7,0.2-1.8,0-1.9c-1.6-0.8-0.7-3.5-1.3-3.3c-1.4,0.4-0.5,2.1-0.7,3.2
		c-0.3,1.4,0.9,3.4-1.8,3.7c-0.5,1.5-0.9,2.9-1.4,4.4c-0.3-0.2-0.7-0.3-0.8-0.5c-0.1-0.3,0-0.7,0-1c-0.1-0.4-0.4-0.7-0.6-1.1
		c-0.1,0.3-0.4,0.6-0.4,0.8c0,1.9,0,3.8-1,5.6c-0.2,0.4-0.5,0.9-0.7,1.3c-0.1-0.5-0.2-0.9-0.4-1.3c0,0-0.8,0.1-0.9,0.2
		c-0.1,0.7,0,1.3-0.1,2c-0.1,0.4-0.3,0.9-0.5,1.3c-0.2-0.4-0.5-0.8-0.5-1.2c0-3.3,0-6.7,0-10c0-0.7,0-1.3,0-2c0-0.2-0.3-0.5-0.5-0.7
		c-0.2,0.3-0.4,0.5-0.4,0.8c-0.4,1.9-0.6,3.7-1,5.6c-0.2,1.1,0.7,2.5-0.6,3.4c-0.1-1.1,0-2.4-0.4-3.3c-1.4-3.1-0.8-6.4-1-9.6
		c0-0.3-0.3-0.5-0.4-0.8c-0.2,0.4-0.5,0.7-0.5,1.1c0,1.6-2.3-1.2-2.1,1.2c0.1,1.1-0.8,2.3-1.2,3.4c-0.6-1-1.1-2-1.7-2.9
		c-0.2-0.3-0.3-0.5-0.4-0.8c-0.2,0.4-0.5,0.7-0.5,1.1c-1.7,8.5-0.8,17-1,25.6c0,0.7-0.4,1.4-0.5,2.2c-0.1-0.6-0.3-1.2-0.4-1.8
		c-0.4-2.7,0.7-5.4-0.6-8c-0.1,2.8-0.2,5.6-0.4,8.3c-0.1,1.8-0.2,3.6-0.3,5.4c-1.4-1.6-0.7-3.6-0.6-5.4c0.3-5.8-1.8-11.3-1.1-17.1
		c0.1-0.4-0.3-0.9-0.4-1.3c-0.2,0.6-0.4,1.1-0.6,1.7c-0.2,0.4-0.3,0.9-0.5,1.3c-0.2-0.4-0.4-0.9-0.5-1.3c-0.4-2.7-0.7-5.4-1-8.1
		c0-0.2-0.4-0.3-0.6-0.5c-0.1,0.3-0.4,0.6-0.4,0.8c0,2.2,0,4.3,0,6.5c0,0.5-0.2,0.9-0.3,1.4c-0.2-0.5-0.4-1.1-0.7-1.3
		c-0.9-0.7-1-1.6-1-2.6c0-0.3-0.3-0.5-0.4-0.8c-0.2,0.2-0.5,0.5-0.5,0.7c-0.1,1.2,0,2.3-0.1,3.5c0,0.3-0.6,0.7-1,0.7
		c-0.3,0-0.9-0.4-0.9-0.8c-0.1-0.8,0-1.7-0.1-2.5c0-0.2-0.4-0.4-0.6-0.6c-0.1,0.1-0.3,0.2-0.3,0.4c-0.1,0.3-0.1,0.6-0.1,1
		c0,0.8-0.1,1.7,0,2.5c0.7,7.4-1.3,14.7-1,22.1c0,0.3-0.2,0.6-0.3,0.9c-0.2-0.3-0.6-0.6-0.6-0.9c0-5.2,0-10.3,0-15.5
		c0-0.7,0-1.3-0.1-2c0-0.1-0.3-0.4-0.3-0.3c-0.2,0.2-0.6,0.4-0.6,0.5c0,2,0,4,0,6c0,0.4-0.3,0.9-0.4,1.3c-0.2-0.4-0.5-0.8-0.5-1.2
		c0-4.5,0-9,0-13.5c0-1,0-2-0.2-2.9c-0.1-0.5-0.9-0.8-1.4-1.3c-0.1,0.4-0.4,0.9-0.4,1.3c-0.1,1.3,0.1,2.7-0.1,4
		c-0.1,0.5-0.8,1-1.3,1.4c-0.2-0.5-0.6-1-0.6-1.4c-0.1-2.2,0.4-4.5-1-6.6c-0.2-0.3-0.3-0.5-0.5-0.8c-0.2,0.2-0.4,0.5-0.5,0.7
		c-1.3,2.2-1,4.7-1,7.1c0,0.4-0.4,0.7-0.6,1.1c-0.1-0.4-0.2-0.9-0.4-1.3c-0.1-0.2-0.4-0.4-0.6-0.4c-0.7,0.1-1.4,0.4-2.1,0.6
		c-0.1-0.8-0.3-1.6-0.3-2.4c0-2-0.7-1.2-1.5-0.4c-0.2-0.4-0.4-0.8-0.5-1.3c-0.4-3-0.6-6.1-1.1-9.1c0-0.3-1-0.5-1.5-0.5
		c-0.2,0-0.6,0.4-0.7,0.7c-0.4,1-0.6,2.8-1.1,2.9c-1.6,0.3-1.7,1.2-1.6,2.4c0,0.3-0.3,0.5-0.4,0.8c-0.2-0.2-0.5-0.4-0.5-0.6
		c-0.1-1,0.1-2-0.1-3c-0.1-0.8,0.7-2.2-1-2.3c-1.3-0.1-3-0.6-3.2,1.7c-0.1,0.6-0.7,1.1-0.7,1.7c-0.3,3.5-2.8,6.4-2.1,10.2
		c0.5,2.7-0.2,5.7,0.2,8.5c0.4,3.2-1.1,6-1.1,9.1c0,0.3-0.3,0.5-0.4,0.8c-0.2-0.2-0.6-0.5-0.5-0.6c0.7-4.1-1.2-8-1-12.1
		c0.1-1.7,0-3.3,0-5c0-0.4-0.3-0.8-0.5-1.1c-0.1,0.4-0.4,0.9-0.4,1.3c-0.1,1,0,2,0,3c0,0.2-0.4,0.4-0.6,0.5c0,0-0.3-0.2-0.3-0.3
		c0-0.7,0-1.3,0-2c0-3.3,0-6.7,0-10c0-0.8,0.2-1.7,0-2.5c-0.4-1.5-0.9-3-1.8-4.3c-1.2-1.7-2.4,1.5-3.7,0.2c-1.4-1.3-2.4,2-3.8,0.2
		c-0.6,0.6-1.4,1.1-1.7,1.9c-0.3,0.7-0.1,1.6-0.1,2.5c0,0.1-0.3,0.4-0.3,0.3c-0.2-0.2-0.6-0.3-0.6-0.5c-0.1-0.8,0-1.7,0-2.5
		c0-1.1,0.2-2.8-1.5-0.9c-0.4-0.9-1.1-1.8-1.1-2.8c0-1,0.6-2,1-3.1c1,0.7,1.8,0.9,1.8-0.8c0.5,0.2,1.1,0.3,1.4,0.7
		c0.4,0.4,0.5,1.1,0.7,1.7c0.4-0.2,0.9-0.6,1-0.5c0.3,0.3,0.4,0.9,0.8,1.2c0.2,0.2,0.7,0,1,0c1.5,0,2.8-2.1,4.5-0.5
		c0.1,0.1,1.1-0.4,1.4-0.8c0.8-1.2,1.1-2.6,1.1-4.1c-0.1-4.2-0.1-8.3,0-12.5c0-0.5,0.4-0.9,0.6-1.4c0.1,0.5,0.2,0.9,0.3,1.4
		c0.1,0.5,0.2,0.9,0.4,1.3c0.2-0.3,0.6-0.6,0.6-1c0.1-1,0-2,0-3c0-1.5-0.4-3.2,0.2-4.4c0.5-0.9,2.4-0.9,1.8-2.7
		c-0.1-0.2,0.3-0.5,0.5-0.8c0.2,0.3,0.5,0.5,0.5,0.8c0,4.3,0,8.7,0,13c0,2.6-0.1,5,1.5,7.4c1.1,1.6,1,3.9,1.5,5.8
		c0.1,0.3,0.2,0.6,0.4,0.8c0.2-0.3,0.4-0.7,0.6-1c0.8-1.2,1.3-1.2,2-0.2c0.3,0.4,0.3,0.9,0.5,1.3c0.2-0.3,0.5-0.5,0.5-0.8
		c0.1-1.2,0-2.3,0-3.5c0-0.6,0.3-1.1,0.5-1.6c0.5,0.5,1.1,0.9,1.4,1.4c0.5,1,0.7,2,1.1,3.1c0.2,0.5,0.5,1,0.8,1.5
		c0.7-0.4,1.7-0.8,1.9-1.3c0.6-2.1,0.9-4.3,1.2-6.5c0.1-1,0-2,0.1-3c0-0.4,0.4-0.7,0.5-1.1c0.1,0.4,0.4,0.9,0.4,1.3
		c0.1,0.7,0,1.3,0,2c0,0.2,0.4,0.3,0.6,0.5c0,0,0.3-0.2,0.3-0.3c0-1.2-0.1-2.3,0.1-3.5c0.1-0.6-0.7-1.7,0.7-1.8
		c0.1,0,0.2,1.2,0.3,1.8c0.1,0.3,0.3,0.6,0.4,0.8c0.2-0.2,0.6-0.3,0.7-0.5c0.4-0.9,0.6-1.8,0.9-2.6c0.1-0.3,0.3-0.5,0.5-0.7
		c0.2,0.3,0.5,0.5,0.5,0.8c0,2.3,0,4.7,0.1,7c0,0.4,0.7,0.8,1.1,1.2c0.3-0.3,0.8-0.6,0.9-0.9c0.4-1.8,0.7-3.7,1-5.6
		c0.1-0.8,0.2-1.6,0.4-2.4c1.3,0.5,0.3,1.6,0.7,2.4c0.2,0.6,0.4,1.2,0.8,1.7c0.5,0.6,1.2,1.2,1.7,1.7c0.2-0.8,0.4-1.5,0.4-2.3
		c0-4.5,0-9,0-13.5c0-0.4,0.4-0.7,0.6-1.1c0.1,0.4,0.3,0.9,0.4,1.3c0.1,0.5,0.2,0.9,0.3,1.4c0.2-0.4,0.7-0.9,0.7-1.3
		c0-4.8,0-9.7,0-14.5C387,73.7,387.3,73.7,387.6,73.7z"/>
	<path d="M43.6,133.2c0,2.2,0,4.3,0,6.5c0,0.6-0.2,1.2-0.4,1.8c-0.2-0.7-0.5-1.3-0.6-2c-0.1-1.5,0-3,0-4.5c0-0.4-0.3-0.9-0.4-1.3
		c-0.2,0.6-0.4,1.1-0.6,1.7c-0.2,0.4-0.3,0.8-0.5,1.3c-0.2-0.4-0.3-0.9-0.5-1.3c-0.2-0.5-0.4-1.1-0.6-1.6c-0.1,0.4-0.2,0.9-0.4,1.3
		c-1.2,2.4-1,5-1,7.6c0,0.3-0.5,0.7-0.7,1c-0.4-0.4-1.1-0.6-1.2-1.1c-0.4-1.7-0.6-3.4-1.1-5.1c-0.4-1.1-0.8-2.2-2.6-1
		c-1.2,0.8-1.3-0.8-1.3-1.8c0-0.3-0.4-0.6-0.6-1c-0.1,0.3-0.3,0.6-0.4,0.8c-0.1,0.9-0.2,1.9-0.4,2.9c-1.4-0.7-0.5-1.9-0.6-2.9
		c-0.1-0.8,0-1.7,0-2.5c0-0.5-0.2-0.9-0.4-1.3c-0.2,0.5-0.6,1-0.6,1.5c-0.1,1.8,0,3.7,0,5.5c0,0.3-0.3,0.5-0.4,0.8
		c-0.2-0.2-0.5-0.5-0.5-0.7c-0.1-1.2,0-2.3,0-3.5c0-2.1,0-2.1-2-4.6c-0.3-0.3-0.4-0.7-0.6-1.1c-0.1,0.3-0.5,0.7-0.4,0.8
		c1.4,2.5-2.1,2.7-2,4.6c-2.9,1.8-4.5,4.2-4,7.8c0,0.2-0.3,0.5-0.5,0.7c-0.2-0.3-0.5-0.5-0.5-0.8c0.2-3.6-1.8-6.6-3.2-9.7
		c-0.7-1.6-1.9-2.9-1.9-4.7c0-0.3-0.6-0.7-1-0.7c-0.3,0-0.9,0.5-0.9,0.8c-0.1,1.2,0,2.3-0.1,3.5c0,0.1-0.8,0.3-0.9,0.2
		c-0.2-0.4-0.3-0.9-0.4-1.3c-0.2,0.4-0.5,0.9-0.7,1.3c-0.3,0.5-0.6,1.1-1,1.6c-0.2,0.3-0.5,0.4-0.8,0.7c-0.1-0.3-0.2-0.6-0.2-0.9
		c-0.2-0.6-0.3-1.2-0.5-1.8c-0.2,0.6-0.4,1.1-0.5,1.7c-0.1,0.8,0.2,1.7-0.1,2.5c-0.2,0.7-1,1.1-1.5,1.7c-0.1-0.6-0.4-1.2-0.4-1.8
		c-0.4-4.7-0.1-9.5-1.2-14c-0.9-3.5-0.6-6.8-0.7-10.1c-0.1-2,0.7-4,0.9-6.1c0.2-2.2-0.5-4.5,0.2-6.4c0.7-2.2,0.8-4.4,0.9-6.6
		c0-0.2,0.3-0.5,0.5-0.7c0.2,0.3,0.4,0.5,0.5,0.8c0.1,1,0,2,0.3,2.9c0.2,0.5,1.5,0.7,1.6,1.2c0.4,2.2,1.4-0.3,1.8,0.3
		c0.5,0.9,0.9,2,1.3,2.9c0.4,0.8,0.7,1.7,1.2,2.5c0.1,0.2,0.6,0.3,0.8,0.3c0.3,0,0.8-0.3,0.8-0.4c-0.3-3.3,2.2-5.9,2.2-9.1
		c0-0.2-0.1-0.4,0-0.5c0.2-0.3,0.5-0.5,0.7-0.8c0.1,0.3,0.2,0.6,0.3,0.9c0.1,0.5,0,1,0.1,1.5c0.1,0.2,0.5,0.5,0.8,0.4
		c0.4-0.1,1.1-0.4,1.1-0.6c0.1-2.2,0-4.3,0.1-6.5c0-0.3,0.3-0.5,0.5-0.8c0.2,0.2,0.5,0.5,0.5,0.7c0,1.8,0,3.7,0,5.5
		c0,0.2,0.3,0.5,0.5,0.7c0.2-0.3,0.4-0.5,0.5-0.8c0.1-0.3,0-0.7,0-1c0.3-1.3-0.6-2.9,0.6-4.1c0.1,1.3-0.1,2.9,0.5,3.8
		c1,1.4-0.1,4.1,2.6,4.4c0.2,0,0.2,1.2,0.3,1.8c0.2,1.2,1.2,1.3,1.7,0.6c0.9-1.1,1.3-0.1,1.8,0.3c0.2-0.6,0.5-1.1,0.7-1.7
		c0,0,0.6,0,0.7,0.2c0.3,0.4,0.5,0.9,0.7,1.4c0.1-0.5,0.3-0.9,0.3-1.4c0-1.5,0-3,0-4.5c0-0.6,0.2-1.2,0.3-1.9
		c1.1,0.8,1.8,0.9,1.8-0.8c0.3,0.1,0.8,0.2,0.8,0.4c0.6,1.4,1.1,2.7,1.6,4.1c0.7-1.6,0.6-3.3,1.3-5c0.7-1.8,0.1-3.9,0.2-5.9
		c0-0.3,0.2-0.6,0.3-0.8c0.2,0.3,0.6,0.6,0.6,1c0.1,1.8,0,3.7,0.2,5.5c0.1,0.5,0.9,0.9,1.3,1.4c0.2-0.4,0.5-0.8,0.5-1.2
		c0-2.5,0-5,0-7.5c0-0.4,0.3-0.8,0.5-1.2c0.2,0.4,0.4,0.9,0.4,1.3c0,2.3-0.1,4.7,0.1,7c0.2,3,0.6,6.1,1,9.1c0,0.2,0.7,0.5,1.2,0.5
		c0.2,0,0.5-0.3,0.8-0.5c0.1-0.1,0-0.3,0-0.5c0.1-1.3,0.2-2.6,0.4-3.8c1.4,1.1,0.3,2.6,0.6,4c0.1,0.6,0,1.3,0,2
		c0.1,0.9,0.3,1.9,0.4,2.8c0.5-0.7,1.2-1.4,1.6-2.2c0.5-1.2,0.8-0.2,1.3,0c0.4,0.2,1.1,0.3,1.3,0.1c1.2-1.2,1.5-0.8,1.5,0.6
		c0,0.4,0.4,0.8,0.7,1.3c-0.1-1.9,2.1-1.6,2.7-2.8c0.4-0.6,0.5-1.5,0.5-2.3c0.1-2.5,0-5,0-7.5c0-0.4,0.3-0.8,0.5-1.2
		c0.2,0.4,0.5,0.9,0.4,1.3c-0.7,4,1.1,7.7,1.1,11.6c0,0.4,0.8,0.7,1.2,1.1c0.3-0.3,0.7-0.6,0.7-1c0.1-0.6,0-1.3,0-2
		c0.1-0.6,0.2-1.2,0.4-1.8c0.2,0.7,0.3,1.4,0.7,2c0.6,1.1,1.3,2.1,2,3.2c0.2,0.2,0.4,0.5,0.5,0.7c0.2-0.3,0.4-0.5,0.4-0.8
		c0-1.2,0-2.3,0-3.5c0-0.8,0.2-1.6,0.2-2.4c0.7,0.2,1.3,0.6,2,0.7c1.1,0.2,2,0,1.8-1.5c-0.1-1-0.1-2,0-3c0-0.8,0.2-1.6,0.4-2.3
		c0.2,0.8,0.4,1.6,0.6,2.5c0.1,0.3,0,0.7,0.1,1c0.1,0.2,0.6,0.5,0.8,0.4c0.4-0.1,1.1-0.4,1.1-0.7c0.1-1.7,0-3.3,0.1-5
		c0-0.4,0.3-0.9,0.5-1.3c0.2,0.4,0.5,0.8,0.5,1.3c0.1,1-0.3,2.1,0.1,3c0.6,1.3,1.7,2.4,2.6,3.6c0.1-1.1,0.2-2.2,0.3-3.4
		c0.1-0.5,0.2-0.9,0.4-1.3c0.2,0.5,0.4,1.1,0.7,1.4c1.6,1.6,1.9,3.6,2,5.7c0,0.5,0.7,2.6,2.2,0.9c0.2-0.2,0.6-0.2,0.9-0.2
		c1.7,0.3,3.7,1.5,4-1.7c0-0.1,1.5-0.2,1.6,0c0.6,1.6,1.7,3.1,1.2,5c0.3,0.1,0.8,0.3,0.9,0.1c1.5-1,1.4-1,2.1,1.1
		c0.1,0.4,0.3,0.9,0.4,1.3c0.2-0.4,0.5-0.8,0.5-1.1c0.1-2,0-4,0-6c0-0.3,0.3-0.5,0.5-0.8c0.2,0.3,0.5,0.5,0.5,0.8c0,1.3,0,2.7,0,4
		c0,0.4,0.3,0.8,0.5,1.2c0.1-0.4,0.4-0.9,0.4-1.3c0.1-0.8,0-1.7,0-2.5c0-0.4,0.4-0.7,0.6-1c0.2,0.2,0.5,0.5,0.7,0.7
		c0.8,0.9,1.7,1.9,1.8-0.4c0-0.2,0.8-0.4,1.3-0.4c0.2,0,0.5,0.4,0.6,0.7c0.1,1.2,0,2.3,0,3.5c0,0.3,0.3,0.5,0.5,0.8
		c0.2-0.3,0.4-0.5,0.5-0.8c0.3-2.2,1.4-4.2,1.1-6.6c-0.2-1.3-0.2-2.7,0-4c0.1-0.5,0.8-1,1.3-1.5c0.2,0.5,0.5,0.9,0.7,1.4
		c0.2,0.8,0.3,1.6,0.4,2.3c1.2-1,1.6-0.7,1.8,0.8c0.1,0.9,0.4,1.9,0.9,2.6c0.4,0.7,1.6,1,1.9,1.6c0.4,0.8,0.1,1.9,0.4,2.8
		c0.1,0.5,0.9,0.7,1.4,1.1c0.1-0.5,0.2-0.9,0.3-1.4c0.1-0.3-0.1-0.7,0.1-1c0.1-0.2,0.5-0.5,0.8-0.4c0.4,0.1,1.1,0.5,1.1,0.6
		c-0.7,2.4,1.5,3.8,2.1,5.7c0.1,0.2,0.4,0.4,0.6,0.6c0.1-0.3,0.4-0.6,0.4-0.8c-0.1-3.4,2-6.3,2-9.7c0-0.4,0.2-0.9,0.4-1.3
		c0.2,0.5,0.4,1,0.7,1.5c0.1,0.1,0.6,0.1,0.7,0.1c0.6-1.9,1-2.8,1.3,0.1c0.1,1,0.6,2.1,1,3.1c0.4,1-1.1,3.1,1.2,3
		c1.8,0,0-2.4,1.5-3.2c0.4-0.2,0.3-1.5,0.3-2.3c0-1.6-0.2-3.2,1.4-4.5c0.5-0.4,0.5-1.4,0.6-2.2c0.1-1.7,0-3.3,0-5
		c0-0.3,0.3-0.5,0.5-0.8c0.2,0.3,0.5,0.5,0.5,0.8c0,1.7,0,3.3,0,5c0,0.8-0.2,1.7,0,2.5c0.6,1.5,1.3-0.6,1.5-0.1
		c0.4,0.8,0.2,1.9,0.5,2.8c0.1,0.4,1,1.1,1.2,1c0.9-0.4,2-1.6,1.8,0.7c-0.3,2.4,0.5,4.7,0.9,7.1c0.4,2.2,1.1,0.5,1.7,0.3
		c0.2,0.9,0.4,1.8,0.7,2.7c0.3,0.7,0.9,1.4,1.4,2c0.1-0.8,0.3-1.6,0.3-2.4c0-1.7,0-3.3,0-5c0-0.4,0.2-0.9,0.4-1.3
		c0.2,0.5,0.4,1,0.6,1.6c0.1,0.3,0,0.7,0,1c-0.1,2.3,0,4.4,2.1,6.2c1.5,1.2,2.3,3,4.6,3.3c1.7,0.2,2.4,3.3,1,4.6c-0.6,0.5-1.3,1-2,1
		c-3.1,0.1-3.5,3.3-5.5,4.6c-0.4,0.2-0.2,1.2-0.3,1.8c0,1.3,0,2.7,0,4c0,0.3-0.3,0.5-0.4,0.8c-0.2-0.2-0.5-0.5-0.5-0.7
		c0-2.5,0-5,0-7.5c0-0.2-0.3-0.5-0.5-0.7c-0.2,0.2-0.6,0.4-0.7,0.7c-0.3,0.7-0.7,1.4-0.7,2.2c0,1.3-0.1,2.1-1.7,2.3
		c-0.5,0.1-1.2,1.1-1.3,1.9c-0.5,2-0.7,4-1.1,6.1c-0.1,0.3-0.3,0.5-0.5,0.8c-0.2-0.2-0.4-0.5-0.5-0.7c-0.2-0.5,0.1-2.3-1-0.4
		c-0.8,1.3-1.3,2.8-2,4.2c-0.3,0.6,0.7,1.8-0.7,1.7c-0.5-0.1-1.1-1.2-1.3-1.9c-0.5-2.2-0.6-4.4-1.1-6.6c-0.1-0.7-0.7-1.5-1.2-2
		c-0.7-0.6-1.5-0.6-1.7,0.6c-0.2,0.8-0.3,1.5-0.7,2.2c-0.5,1-1.2,0.7-1.7-0.1c-0.2,0.4-0.5,0.7-0.6,1.1c-0.1,2.3,0,4.7,0,7
		c0,0.3-0.3,0.5-0.5,0.8c-0.2-0.2-0.5-0.5-0.5-0.7c-0.1-1,0-2,0-3c0-1.1,0.5-2.5-1.5-2.4c-0.1,0-0.4-1.1-0.4-1.7c0-2.7,0-5.3,0-8
		c0-0.4-0.4-0.7-0.6-1.1c-0.4,0.4-0.8,0.6-1,1.1c-0.2,0.6-0.4,1.3-0.3,1.8c0.3,1.9-1.3,2.5-2.2,3.6c-0.1,0.1-0.6,0.1-0.7,0
		c-0.1-0.3,0-0.7-0.2-0.9c-0.2-0.2-0.6-0.2-0.9-0.4c-0.4,1.3-0.7,2.7-1.1,4c-0.1,0.2-0.4,0.3-0.6,0.4c-0.1-0.3-0.2-0.6-0.3-0.9
		c-0.1-0.3-0.2-0.6-0.4-0.8c-0.2,0.2-0.6,0.3-0.6,0.5c0,2.2,0,4.3-0.1,6.5c0,0.3-0.5,0.8-0.9,0.8c-0.3,0-0.9-0.3-1.1-0.7
		c-0.2-0.4,0.1-1-0.1-1.5c-0.2-0.9-1.3-1.2-1.8-0.5c-0.3,0.5-0.5,1.1-0.7,1.6c-0.2-0.4-0.4-0.9-0.4-1.3c0-2.2,0-4.3-0.1-6.5
		c0-0.4-0.7-0.8-1.1-1.1c-0.3,0.3-0.7,0.6-0.8,0.9c-0.4,0.9,0.7,2.2-0.7,2.9c-0.1-1-0.2-1.9-0.4-2.9c-0.1-0.3-0.5-0.5-0.7-0.8
		c-0.1,0.3-0.2,0.6-0.3,0.9c-0.1,0.3-0.3,0.6-0.4,0.8c-0.2-0.2-0.5-0.4-0.6-0.6c-0.3-0.8,0.6-2.3-1-2.2c-1.5,0.1-2.2,1.3-2,2.8
		c0,0.2,0,0.3,0,0.5c-0.3,1.5,0.7,3.2-0.6,4.5c-0.1-1.4-0.3-2.9-0.4-4.3c-0.1-1.1-0.1-2.3-0.3-3.4c-0.2-0.7-0.7-1.4-1-2.1
		c-0.2,0.7-0.4,1.3-0.6,2c0,0.2,0,0.3,0,0.5c0,0.3-1.1,0.9-1.8,1.8c-1.3,1.8-2.8,1.3-3.8,0.3c-1-0.9-1.9,0.2-3-0.6
		c-2.8-1.9-5.1-0.5-5.3,2.9c-0.1,1.4-0.8,1.7-1.7,2.3c-0.7,0.5-0.7,2-1.2,2.9c-0.3,0.5-0.8,1.2-1.2-0.1c-0.3-1-0.6-2.1-1-3.1
		c-0.2-0.5-0.8-0.8-1.1-1.1c-0.3,0.5-0.6,1-0.8,1.5c-0.2,0.4-0.2,0.9-0.3,1.4c-0.2-0.5-0.6-0.9-0.6-1.4c-0.1-0.8,0-1.7,0-2.5
		c0-0.6-0.2-1.2-0.4-1.8c-0.2,0.7-0.4,1.4-0.6,2c-0.7,1.9-1.1-0.3-1.5-0.1c-0.3,0.2-0.4,0.8-0.5,1.2c-0.2,0.9-0.4,1.7-0.6,2.6
		c-0.1-0.9-0.4-1.9-0.4-2.8c-0.1-2.2,0-4.3,0-6.5c0-0.8-0.4-1.7-0.6-2.5c-0.1,0.8-0.1,1.6-0.4,2.3c-0.4,0.9-2.5,0.2-2,2.1
		c-0.3-0.1-0.9-0.1-0.9-0.2c-0.1-0.8,0-1.7-0.1-2.5c0-0.3-0.3-0.5-0.4-0.8c-0.2,0.2-0.5,0.5-0.5,0.7c0.2,1.7,0,3.2-1.6,4.4
		c-0.4,0.3-0.3,1.2-0.5,1.8c-0.3,1,0.7,2.2-0.6,3c-0.1-0.9-0.3-1.9-0.4-2.8c-0.1-1,0.1-2,0-3c0-0.4-0.5-1-0.7-1
		c-0.7,0.1-1.3,0.4-2,0.7c-0.1-0.8-0.1-1.6-0.3-2.4c-0.1-0.4-0.3-0.9-0.4-1.3c-0.2,0.6-0.5,1.1-0.5,1.7c-0.2,2.4-1,0.4-1.6,0.3
		c-0.3-0.1-0.8-0.1-0.9,0.1c-1,1.1-1.5,1.1-1.5-0.6c0-0.7,0.1-1.4-0.1-2c-0.1-0.3-0.8-0.5-1.2-0.5c-0.2,0-0.7,0.3-0.7,0.5
		C43.6,127.9,43.6,130.5,43.6,133.2z"/>
	<path d="M236.5,92.6c0.2-2.6,0.3-5.2,0.5-7.8c1.4,2.6,0.4,5.3,0.6,7.9c0.2,2.5,0,5,0.1,7.5c0,0.6,0.4,1.1,0.7,1.7
		c0.2,0.3,0.5,0.5,0.7,0.7c0.9-1.8,1.8,0.2,2.7,0c0.3-0.1,0.7-0.3,0.8-0.4c0.1-0.6,0-1.3,0.1-2c0.3-1.8-0.7-3.8,0.6-5.4
		c0.1,1.8,0.2,3.6,0.4,5.4c0.1,0.5,0.5,1,0.8,1.5c0.4-0.4,0.8-0.7,1.2-1.1c0.2-0.2,0.3-0.5,0.4-0.8c0.2,0.2,0.5,0.4,0.6,0.6
		c0,1.5,0,3,0,4.5c0,0.3,0.3,0.5,0.5,0.8c0.2-0.2,0.5-0.5,0.5-0.7c0.1-1.2,0-2.3,0-3.5c0-0.2,0.3-0.5,0.5-0.7
		c0.2,0.3,0.5,0.6,0.4,0.8c-0.4,1.7,0.8,3,1,4.6c0.1,0.9,0.1,1.8,1.2,1.5c0.4-0.1,0.7-0.9,0.8-1.5c0.1-2.5,0-5,0.1-7.5
		c0-0.3,0.5-0.7,0.8-1c0.4,0.4,0.9,0.7,1.2,1.1c0.2,0.4,0,1,0.1,1.5c0.1,0.5,0.3,0.9,0.4,1.3c0.2-0.4,0.5-0.7,0.6-1.1
		c0.4-2,0.7-4.1,1-6.1c0-0.3,0.3-0.5,0.5-0.7c0.2,0.3,0.4,0.5,0.4,0.8c0,1.5,0.2,3,0,4.5c-0.2,1.4,0.4,2.5,1,3.6
		c0.2,0.3,0.4,0.6,0.7,0.9c0.1-0.3,0.3-0.6,0.3-0.9c0.4-3,0.7-6.1,1-9.1c0-0.3,0.6-0.6,0.9-0.9c0.4,0.4,1,0.8,1,1.2
		c0.1,1.5,0.3,3,0,4.5c-0.4,2.4,0.9,4.4,1.1,6.6c0,0.2,0.3,0.5,0.5,0.7c0.2-0.3,0.4-0.5,0.4-0.8c0-1.8-0.2-3.7,0.1-5.5
		c0.2-1.2,1-2.3,1.6-3.5c0.1,1.1,0.2,2.2,0.3,3.4c0,0.5,0,1,0,1.5c0.1,0.6,0.2,1.2,0.4,1.8c0.2-0.7,0.4-1.3,0.6-2
		c0.1-0.3,0.3-0.5,0.4-0.8c0.2,0.2,0.5,0.3,0.7,0.6c0.3,0.5,0.6,1.1,0.9,1.6c0.1,0.2,0.4,0.4,0.5,0.7c0.1-0.3,0.4-0.5,0.4-0.8
		c0-1.2-0.1-2.2,1.6-2.4c0.2,0,0.2-2.1,0.4-3.2c0.1-0.5,0.4-0.9,0.7-1.4c0.1,0.5,0.2,0.9,0.3,1.4c0.1,0.4,0.3,0.9,0.4,1.3
		c0.2-0.3,0.5-0.7,0.6-1c0.1-0.7,0-1.3,0-2c0-0.3,0.3-0.5,0.4-0.8c0.2,0.2,0.5,0.4,0.5,0.7c0.1,1.2,0,2.3,0.1,3.5
		c0,0.2,0.6,0.5,0.8,0.4c1.1-0.5,1.1-0.5,1.2,0.3c0.2,1.4-0.6,3,0.6,4.2c0.6,0.6-0.1,2.3,1.6,1.9c1.2-0.3,0.5-1.4,0.8-2
		c0.4-1,0.9-1.9,1.4-2.9c0.5,1.1,1.2,2.1,1.5,3.3c0.2,0.8,0,1.7,0.1,2.5c0,0.4,0.4,0.8,0.5,1.1c0.1-0.4,0.4-0.9,0.4-1.3
		c0-1.7,0-3.3,0-5c0-1.2,0-2.3,0-3.5c0-0.3,0.4-0.7,0.6-1c0.1,0.4,0.1,1,0.4,1.3c0.3,0.3,0.8,0.5,1.2,0.5c0.7,0.1,1.6-0.3,1.8,1.1
		c0.2,2.2,1.4-0.8,1.7,0.3c0.2,0.8,0.1,1.6,0.2,2.4c0.1,0.4,0.3,0.8,0.5,1.3c0.4-0.4,0.8-0.7,1-1.1c0.2-0.4,0.3-0.9,0.5-1.3
		c0.1-0.2,0.4-0.3,0.6-0.5c0.1,0,0.3,0.2,0.3,0.3c0,0.5,0,1,0,1.5c0.1,1,0.2,1.9,0.3,2.9c1.4-0.7,0.3-2,0.7-2.9
		c0.1-0.3,0.5-0.5,0.7-0.7c0.1,0.3,0.2,0.6,0.2,0.9c0.2,0.9,0.9,1.1,0.9,0.1c-0.1-1.7,1.5-0.9,2-1.6c0.5-0.7,0.9-0.8,1.1,0.3
		c0.2,1.1,0.8,2,0.9,3.1c0.3,1.7,0.5,3.2,2.4,4.1c0.4,0.2,0.6,1,0.6,1.6c0.1,1.4,0.7,1.8,1.8,1c0.7-0.5,1.3-1.1,2.1-0.3
		c0.6,0.6,1,0.7,1.1-0.3c0.1-0.6,0.2-1.3,0.3-1.9c0.5,0.2,0.9,0.4,1.4,0.6c0.2-0.6,0.5-1.1,0.7-1.7c0.2,0.5,0.4,1.1,0.7,1.5
		c0.2,0.3,0.4,0.6,0.7,0.7c0.5,0.3,1.1,0.4,1.7,0.6c0.2-0.4,0.3-0.9,0.5-1.3c0.2-0.7-0.1-2.7,1.2-0.8c1.1,1.5,3.4,1.7,3.9,3.8
		c0,0.1,0.6,0.1,0.7,0c0.4-3.2,1.4-0.5,2.2-0.2c1.8,0.6,3.6,1.1,5.4,1.5c0.8,0.2,2-0.1,2.3,0.3c1.5,1.7,3.8-0.4,5.2,1.4
		c-1.6,1.1-4-0.7-5.4,1.3c-0.5-0.7-0.9-0.9-1.8-0.2c-0.8,0.6-2.5,0-3.2,0.6c-0.7,0.6-0.9,1.6-2.1,2c-1.1,0.3-2.5,3.5-2.4-0.6
		c0-0.2-1.3-0.7-1.4-0.6c-0.9,0.9-1.9,1.8-2.4,3c-0.7,1.5-1.4,1-2.1,0.3c-0.4-0.4-0.7-1-0.9-1.6c-0.4-1-0.7-0.9-1,0
		c-0.2,0.6-0.5,1.1-0.9,1.6c-0.2,0.2-0.7,0.1-1,0.1c0.3-2.4-1.2-0.5-1.8-0.8c-1.6-1.1-1.8-1.1-2.2,0.1c-0.1,0.3,0.1,0.7,0,1
		c-0.1,0.4-0.4,0.7-0.6,1.1c-0.1-0.3-0.4-0.5-0.4-0.8c-0.1-1-0.2-1.9-0.3-2.9c-1.2,0.3-1.3,1.6-1.9,2.3c-1.3,1.4-3.1,2.3-3.4,4.5
		c-0.1,0.7-1,1.3-1.7,0.2c-0.2,0.4-0.7,0.9-0.7,1.3c0.5,2.3-2.2,1-2.5,2.4c-0.2-0.4-0.3-0.8-0.6-1.1c-0.3-0.3-0.6-0.7-1-0.8
		c-1.9-0.3-1.9-0.3-2-1.4c-0.1-0.5-0.4-1-0.6-1.6c-0.1,0.4-0.3,0.9-0.4,1.3c-0.1,0.5,0.1,1,0,1.5c-0.1,0.7-0.4,1.3-0.6,1.9
		c-0.1-0.6-0.2-1.2-0.4-1.9c-0.1-0.3-0.2-0.6-0.4-0.9c-0.2,0.3-0.6,0.6-0.6,1c-0.1,1.2,0,2.3,0,3.5c0,0.3,0,0.6-0.1,1
		c-0.4-0.1-0.8,0-1-0.2c-1.2-0.7-1.8-0.5-1.9,0.9c-0.1,0.6-0.3,1.1-0.5,1.7c-0.2-0.6-0.4-1.2-0.4-1.8c0-3,0-6,0-9
		c0-0.4-0.4-0.7-0.6-1c-0.1,0.3-0.4,0.6-0.4,0.8c0,2.3,0,4.7,0,7c0,0.3-0.4,0.6-0.6,0.9c-0.2-0.2-0.6-0.4-0.7-0.7
		c-0.3-0.6-0.5-1.1-0.6-1.7c-0.1-0.6,0.2-1.5-0.1-1.9c-0.7-0.9-1.6-1.6-2.4-2.4c-0.5,0.8-0.9,1.6-1.5,2.4c-0.7,1.1-1.2,2.3-2.1,3.1
		c-1.6,1.3-2.1,2.8-1.9,4.8c0.1,0.5-0.3,1.1-0.5,1.6c-0.1-0.6-0.3-1.2-0.4-1.8c-0.8-2.5-1.2-5-1.1-7.6c0-0.5-0.9-0.9-1.3-1.4
		c-0.2,0.3-0.5,0.7-0.6,1c-0.2,0.9-0.1,1.9-0.5,2.8c-0.5,1.1-1.3,1.2-2.1,0.1c-0.1,0.6-0.4,1.2-0.4,1.8c-0.1,1.2,0,2.3,0,3.5
		c0,0.2-0.4,0.4-0.6,0.5c0,0-0.3-0.2-0.3-0.3c-0.4-1.2-0.9-2.4-1-3.6c-0.2-2.2,0-4.3-0.1-6.5c0-0.4-0.2-0.9-0.4-1.3
		c-0.2,0.5-0.4,1-0.6,1.5c-1.6,2.9-0.8,6-1,9.1c-0.1,1.2,0,2.3,0,3.5c0,0.3-0.3,0.5-0.5,0.8c-0.2-0.3-0.4-0.5-0.5-0.8
		c-0.7-3.4-1.3-6.8-2-10.2c-0.1-0.3-0.2-0.6-0.3-0.9c-0.2,0.3-0.6,0.6-0.6,0.9c-0.4,1.7-0.7,3.4-1,5.1c-0.1,0.3-0.3,0.5-0.4,0.8
		c-0.2-0.2-0.6-0.5-0.5-0.7c0.9-2.3-2.2-2.8-2.1-4.7c0,0-0.8-0.2-0.9-0.1c-0.2,0.4-0.3,0.9-0.4,1.3c-0.2-0.5-0.6-0.9-0.6-1.4
		c-0.1-2,0-4,0-6c0-0.4-0.3-0.9-0.4-1.3c-0.5,0.4-1.2,0.7-1.4,1.2c-0.6,1.4,0.3,3.3-1.2,4.5c-0.3,0.2-0.4,0.7-0.6,1.1
		c-0.1-0.4-0.3-0.9-0.4-1.3c-0.3-1.1,0.6-2.5-0.6-3.4c-0.1,1.1-0.2,2.2-0.4,3.3c-0.1,0.5-0.4,1.1-0.8,1.5c-0.1,0.1-0.9-0.3-1.1-0.6
		c-0.3-0.3-0.3-0.9-0.4-1.3c-0.2,0.4-0.6,0.7-0.6,1.1c0,2.7,0,5.3,0,8c0,0.7,0,1.3,0,2c0,0.3-0.3,0.5-0.4,0.8
		c-0.2-0.2-0.5-0.5-0.5-0.7c-0.1-0.7-0.1-1.4,0-2c0.7-3-1.2-5.7-1-8.6c0-0.2-0.4-0.4-0.6-0.6c-0.1,0.3-0.4,0.5-0.4,0.8
		c-0.1,0.7,0.1,1.3,0,2c-0.1,0.3-0.4,0.6-0.6,0.9c-0.1-0.3-0.3-0.6-0.3-0.9c-0.1-0.6-0.1-1.3-0.4-1.8c-0.2-0.4-0.7-0.7-1-1.1
		c-0.2,0.4-0.5,0.7-0.6,1.1c-0.1,2,0,4,0,6c0,0.3-0.3,0.5-0.5,0.8c-0.2-0.2-0.5-0.5-0.5-0.7c-0.1-1.2,0-2.3,0-3.5
		c-0.1-1.6,0.8-3.7-1.9-4.2c-0.1,0,0-0.9-0.1-1.4c-0.1-0.4-0.4-0.7-0.6-1.1c-0.1,0.3-0.4,0.6-0.4,0.8c0,1.2,0,2.3,0,3.5
		c0,0.1-0.4,0.3-0.6,0.4c-0.1-0.3-0.2-0.6-0.3-0.9c-0.1-0.3-0.2-0.6-0.4-0.8c-0.2,0.2-0.6,0.3-0.6,0.5c0,1.3,0,2.7,0,4
		c0,0.4-0.3,0.9-0.4,1.3c-0.2-0.5-0.4-1.1-0.6-1.6c-0.2-0.4-0.3-0.9-0.5-1.3c-0.2,0.4-0.5,0.8-0.5,1.3c-0.1,2,0,4,0,6
		c0,0.2-0.3,0.5-0.5,0.7c-0.2-0.3-0.4-0.5-0.4-0.8c0-4,0-8,0-12c0-0.7,0.1-1.3,0-2c-0.1-0.4-0.4-0.7-0.6-1.1
		c-0.1,0.3-0.3,0.5-0.4,0.8c-0.4,2.4-0.7,4.7-1,7.1c0,0.3-0.2,0.6-0.4,0.8c-0.2-0.3-0.5-0.6-0.6-1c-0.4-1.2-0.7-2.4-1-3.6
		c-0.1-0.4-0.3-0.9-0.5-1.3c-0.2,0.4-0.5,0.8-0.5,1.3c0,3.3,0,6.7,0,10c0,0.7,0,1.3,0,2c0,0.2-0.3,0.5-0.5,0.7
		c-0.2-0.3-0.4-0.5-0.4-0.8c0-3,0-6,0-9c0-0.3-0.4-0.7-0.6-1c-0.1,0.3-0.4,0.6-0.4,0.8c0,2.7,0,5.3,0,8c0,0.3-0.4,0.6-0.6,0.9
		c-0.1-0.3-0.3-0.6-0.3-0.9c-0.2-1.3-0.2-2.6-0.4-3.8c-0.1-0.4-0.7-0.7-1-1.1c-0.2,0.4-0.4,0.7-0.6,1.1c-0.1,0.1,0.1,0.4,0,0.5
		c-0.5,0.8-1,1.5-1.5,2.3c-0.5-0.8-1.3-1.6-1.4-2.4c-0.2-2,0-4-0.1-6c0-0.2-0.4-0.5-0.7-0.5c-0.3-0.1-0.8,0-0.9,0.2
		c-0.5,1.3-1.2,2.6-1.3,3.9c-0.2,3.2,0,6.3-0.1,9.5c0,0.4-0.3,0.9-0.4,1.3c-0.2-0.4-0.5-0.8-0.5-1.1c0-2.5,0-5,0-7.5
		c0-0.4-0.3-0.9-0.5-1.3c-0.2,0.4-0.4,0.8-0.5,1.3c-0.1,0.7,0.3,1.6-0.1,2c-2.3,2.6-2,5.7-2,8.7c0,0.3-0.2,0.6-0.3,0.9
		c-0.2-0.3-0.6-0.6-0.6-0.9c0-4.5,0-9,0-13.5c0-0.4-0.2-0.9-0.4-1.3c-0.2,0.5-0.5,1-0.6,1.5c-0.1,0.5,0,1,0,1.5
		c0,0.3-0.3,0.5-0.4,0.8c-0.2-0.2-0.5-0.4-0.5-0.7c-0.1-0.5,0-1,0-1.5c-0.1-0.6-0.3-1.2-0.5-1.8c-0.2,0.6-0.3,1.2-0.5,1.8
		c-0.1,0.4-0.4,0.8-0.6,1.1c-0.1-0.3-0.4-0.5-0.4-0.8c-0.1-1.3-0.1-2.6-0.3-3.9c-0.1-0.7-0.7-1.4-1-2.1c-0.4,0.6-0.7,1.2-1.1,1.7
		c-0.3,0.4-0.7,1-1.1,1c-0.5,0-1.5-0.4-1.5-0.6c-0.1-2.2-0.1-4.3-0.1-6.5c0-0.3-0.3-0.5-0.5-0.8c-0.2,0.3-0.4,0.5-0.5,0.8
		c-0.6,3.1-2.9,5.5-3.1,8.8c0,0.7-0.6,1.4-1,2.1c-0.2,0.4-0.3,0.9-0.5,1.3c-0.2-0.4-0.5-0.8-0.5-1.2c-0.1-1.2,0.3-2.5-0.1-3.5
		c-0.7-1.8-0.6-4.1-2.6-5.4c-1-0.7-1.5-1.6-1.4-2.9c0.1-1.2-0.8-0.9-1.7-0.7c-1.7,0.4-1.9,2.5-3.7,2.9c-0.4,0.1-0.4,2-0.5,3.2
		c-0.1,1,0,2,0,3c0,0.2-0.4,0.4-0.6,0.6c-0.1-0.3-0.4-0.5-0.4-0.8c-0.1-0.6-0.1-1.4-1-0.6c-0.4,0.4-0.9,1-1,1.6
		c-0.4,3-0.7,6.1-1.1,9.1c0,0.3-0.3,0.5-0.5,0.8c-0.2-0.2-0.5-0.5-0.5-0.7c0-2.2,0.1-4.3-0.1-6.5c-0.1-1.4-0.6-2.7-1-4.1
		c-0.1-0.2-0.4-0.4-0.6-0.6c-0.1,0.3-0.4,0.6-0.4,0.8c0,1.3,0.1,2.7,0,4c0,0.7-0.4,1.3-0.6,1.9c-0.4-0.7-0.9-1.3-1-2.1
		c-0.2-2.1-0.2-4.2-0.4-6.4c0-0.4-0.3-0.9-0.4-1.3c-0.2,0.4-0.5,0.7-0.6,1.1c-0.7,3.1-2.1,5.9-2,9.2c0,0.2-0.5,0.6-0.6,0.5
		c-0.3-0.1-0.6-0.4-0.7-0.7c-0.3-0.7-0.5-1.5-0.7-2.2c-0.2-0.9-0.2-1.9-0.4-2.8c-0.1-0.4-0.7-0.7-1-1.1c-0.2,0.4-0.4,0.7-0.6,1.1
		c-0.4,1-0.6,2.1-1,3.1c-0.1,0.2-0.8,0.4-0.8,0.3c-0.9-1.1-2.4-1.7-2.2-3.6c0.2-1.8,0.1-3.7,0-5.5c0-0.5-0.8-1-1.4-1.4
		c-0.1-0.1-0.8,0.5-1,0.9c-0.6,1-0.7,2.6-2.6,2.1c-0.2,0-0.8,0.8-0.9,1.3c-0.4,1.7-0.6,3.4-1.1,5.1c-0.2,0.6-0.9,1-1.3,1.4
		c-0.5-0.5-1.4-1-1.5-1.6c-0.2-1.3-0.1-2.7-0.1-4c0-1.5,0-3,0-4.5c0-0.3-0.3-0.5-0.5-0.8c-0.2,0.2-0.5,0.4-0.7,0.7
		c-1,1.8-1.9,3.6-2.8,5.3c-0.1,0.3-0.3,0.6-0.4,0.8c-0.2-0.2-0.5-0.3-0.6-0.5c-1.2-2.4-2.3-4.8-2.1-7.7c0.3-3.8,0.1-7.7,0-11.5
		c0-1.3,0.4-2.1,1.3-3c1.3-1.3,2-1.5,2.4,0.1c0.4,1.9,3.2,2.7,2.4,5c0,0.1,0.4,0.4,0.5,0.6c0.1-0.3,0.4-0.5,0.4-0.8
		c0-1.5-0.2-3,0.1-4.5c0.3-1.8,0.8-3.6,1.3-5.4c0.1-0.4,0.7-0.7,1-1.1c0.2,0.4,0.5,0.7,0.6,1.1c0.4,2.4,0.6,4.7,1,7.1
		c0.2,1.3,0.8,0.2,1.2,0.1c0.4-0.1,1,0.4,1.4,0.8c0.8,0.8,1.4,1.7,2.1,2.6c0.4-1.2,1.3-2.4,1.1-3.5c-0.7-3.9,3-6.8,2.1-10.7
		c0-0.1,0.4-0.3,0.6-0.4c0.1,0,0.3,0.2,0.3,0.3c0,1.2,0,2.3,0,3.5c0,0.7-0.5,1.8,0.8,2c1.2,0.2,0.9-0.9,1.3-1.5c1-1.8,0.9-3.7,1-5.6
		c0-0.3,0.3-0.5,0.5-0.8c0.2,0.2,0.5,0.5,0.5,0.7c0.1,1,0.1,2,0,3c-0.1,2.8,0.3,5.4,1.9,7.7c0.7,1,1.2,2.2,1.8,3.3
		c0.1-1.1,0.2-2.3,0.3-3.4c0-0.7,0-1.3,0-2c0.1-0.8,0-2,0.5-2.2c1.1-0.7,1.6,0.6,2.4,1.2c0.2,0.2,0.5,0.4,0.7,0.6
		c0.2-0.3,0.4-0.5,0.4-0.8c0-2,0-4,0.1-6c0-0.4,0.7-0.8,1.1-1.2c0.3,0.3,0.7,0.6,0.8,0.9c0.9,2.3,1.2,4.6,1.1,7.1c0,0.5-1,3.2,1.4,1
		c0.2,0.5,0.6,1.1,0.5,1.6c-0.2,2.8,1,5,3,6.7c0.5,0.4,1.5,0.6,2.2,0.5c1.2-0.1,0.8-1.3,0.7-2c-0.1-1.1,0.2-2.2,1.1-2.5
		c2.5-0.8,2-3.2,2.9-4.8c0.3-0.5-0.1-1.4,0.1-2c0.4-1.2,1-2.4,1.6-3.6c0.1,1.3,0.3,2.6,0.4,3.8c0.1,2.6,0.1,2.6,2.7,6.3
		c0.3,0.5,0.2,1.2,0.3,1.9c0.1,0.3,0.3,0.5,0.4,0.8c0.2-0.2,0.5-0.4,0.5-0.7c0.1-1.2,0.1-2.3,0-3.5c-0.1-2,1.6-2.7,2.7-3.8
		c0.2-0.1,0.6,0,0.9,0.1c1.4,0.5,1.4,0.5,1.4-0.7c0-0.8,0-1.7,0-2.5c0-0.6,0.2-1.2,0.4-1.8c0.2,0.7,0.4,1.4,0.6,2
		c0.1,0.3,0.3,0.5,0.4,0.8c0.2-0.2,0.5-0.4,0.5-0.7c0.1-0.8,0-1.7,0-2.5c0-0.3,0.3-0.5,0.5-0.8c0.2,0.3,0.5,0.5,0.5,0.8
		c0,1.5,0,3,0,4.5c0,0.5,0.4,1.1,0.5,1.6c0.1-0.6,0.4-1.2,0.4-1.8c0-2.8,0-5.7,0-8.5c0-1.4-0.5-2.9,0.9-4.2c0.7-0.7-0.6-2.4,0.8-3.3
		c0.1,1.3,0.2,2.6,0.3,3.9c0.3,4,0.7,8.1,1,12.1c0,0.3,0.3,0.5,0.4,0.8c0.2-0.4,0.5-0.8,0.5-1.2c0-2.5,0-5,0-7.5
		c0-0.4,0.3-0.8,0.5-1.3c0.2,0.4,0.5,0.9,0.5,1.3c0,2.3,0,4.7,0,7c0,0.8-0.2,1.7,0.1,2.5c0.3,0.8,1,1.4,1.6,2.1
		c0.5-0.6,1.1-1.2,1.3-1.9c0.2-0.9,0-2,0.1-3c0-1.8,0.8-2.6,2.3-1.8c1.4,0.7,1.8,1.1,1.7-0.8c0-0.9,0.6-1.7,1-2.6
		c0.1-0.2,0.4-0.4,0.6-0.6c0.1,0.3,0.4,0.5,0.4,0.8c0.1,0.7-0.1,1.4,0,2c0.3,1.3-0.7,2.8,0.6,4c0.1-1.3,0.2-2.6,0.4-3.8
		c0-0.3,0.2-0.6,0.3-0.9c0.2,0.3,0.6,0.6,0.6,0.9c0.1,1.7-0.1,3.3,0.1,5c0.1,0.7,0.9,1.3,1.4,1.9c0.2-0.6,0.4-1.1,0.5-1.7
		c0.1-0.5,0-1,0-1.5c0-0.3,0.3-0.5,0.5-0.7c0.2,0.3,0.4,0.5,0.5,0.8c0,1.3,0,2.7,0,4c0.1,0.8,0.3,1.5,0.6,2.2c0.2,0.3,0.7,0.5,1,0.8
		c0.1-0.3,0.3-0.6,0.3-0.9c0-4,0-8,0-12c0-0.3,0.2-0.6,0.3-0.9c0.2,0.3,0.6,0.6,0.6,0.9c0.1,0.7,0,1.3,0,2c0.1,1-0.2,3.7,1.1,0.3
		c0-0.1,0.6-0.1,0.7-0.1c0.1,0.5,0.2,0.9,0.2,1.4c0.1,1.5-0.6,3.4,1.9,3.6c0.6,1.8-0.7,3.8,0.7,5.5c0.1-1.8,0.3-3.6,0.4-5.3
		c2.3-0.6,2.1-2.3,2-4.1c-0.1-1.8,0-3.7,0-5.5C236.6,92.6,236.5,92.6,236.5,92.6z"/>
	<path d="M336.6,114.2c-0.2,0.1-0.4,0.3-0.7,0.3c-0.1,0-0.2-0.2-0.3-0.3c0.2-0.1,0.4-0.3,0.7-0.3C336.4,113.8,336.5,114,336.6,114.2
		z"/>
</g>
<g>
	<rect x="140.6" y="195.6" fill="none" width="142.7" height="21"/>
	<text transform="matrix(1 0 0 1 140.62 204.1224)" fill="#454545" font-family="'MyriadPro-Regular'" font-size="12">Wurlitzer 200A</text>
</g>
<g>
	<rect x="339.6" y="10.3" fill="none" width="142.7" height="26.4"/>
	<text transform="matrix(1 0 0 1 339.62 18.8138)" fill="#454545" font-family="'MyriadPro-Regular'" font-size="12">Hammond B3</text>
</g>
<g>
	<rect x="1.6" y="13" fill="none" width="142.7" height="26.4"/>
	<text transform="matrix(1 0 0 1 1.5863 21.5046)" fill="#454545" font-family="'MyriadPro-Regular'" font-size="12">Fender Rhodes Mark I</text>
</g>
<line fill="none" stroke="#ABABAB" stroke-miterlimit="10" x1="9.6" y1="65.2" x2="21.1" y2="31.7"/>
<line fill="none" stroke="#ABABAB" stroke-miterlimit="10" x1="345.6" y1="65.2" x2="357.1" y2="31.7"/>
<line fill="none" stroke="#ABABAB" stroke-miterlimit="10" x1="153.6" y1="157.7" x2="165.1" y2="191.2"/>
</svg>
